G04 Layer_Color=8388736*
%FSLAX25Y25*%
%MOIN*%
G70*
G01*
G75*
G04:AMPARAMS|DCode=45|XSize=41.4mil|YSize=98.49mil|CornerRadius=11.35mil|HoleSize=0mil|Usage=FLASHONLY|Rotation=180.000|XOffset=0mil|YOffset=0mil|HoleType=Round|Shape=RoundedRectangle|*
%AMROUNDEDRECTD45*
21,1,0.04140,0.07579,0,0,180.0*
21,1,0.01870,0.09849,0,0,180.0*
1,1,0.02270,-0.00935,0.03789*
1,1,0.02270,0.00935,0.03789*
1,1,0.02270,0.00935,-0.03789*
1,1,0.02270,-0.00935,-0.03789*
%
%ADD45ROUNDEDRECTD45*%
G04:AMPARAMS|DCode=46|XSize=133.92mil|YSize=98.49mil|CornerRadius=16.17mil|HoleSize=0mil|Usage=FLASHONLY|Rotation=180.000|XOffset=0mil|YOffset=0mil|HoleType=Round|Shape=RoundedRectangle|*
%AMROUNDEDRECTD46*
21,1,0.13392,0.06614,0,0,180.0*
21,1,0.10157,0.09849,0,0,180.0*
1,1,0.03235,-0.05079,0.03307*
1,1,0.03235,0.05079,0.03307*
1,1,0.03235,0.05079,-0.03307*
1,1,0.03235,-0.05079,-0.03307*
%
%ADD46ROUNDEDRECTD46*%
G04:AMPARAMS|DCode=47|XSize=37.47mil|YSize=27.62mil|CornerRadius=4.36mil|HoleSize=0mil|Usage=FLASHONLY|Rotation=0.000|XOffset=0mil|YOffset=0mil|HoleType=Round|Shape=RoundedRectangle|*
%AMROUNDEDRECTD47*
21,1,0.03747,0.01890,0,0,0.0*
21,1,0.02874,0.02762,0,0,0.0*
1,1,0.00872,0.01437,-0.00945*
1,1,0.00872,-0.01437,-0.00945*
1,1,0.00872,-0.01437,0.00945*
1,1,0.00872,0.01437,0.00945*
%
%ADD47ROUNDEDRECTD47*%
G04:AMPARAMS|DCode=48|XSize=53.21mil|YSize=35.5mil|CornerRadius=5.15mil|HoleSize=0mil|Usage=FLASHONLY|Rotation=0.000|XOffset=0mil|YOffset=0mil|HoleType=Round|Shape=RoundedRectangle|*
%AMROUNDEDRECTD48*
21,1,0.05321,0.02520,0,0,0.0*
21,1,0.04291,0.03550,0,0,0.0*
1,1,0.01030,0.02146,-0.01260*
1,1,0.01030,-0.02146,-0.01260*
1,1,0.01030,-0.02146,0.01260*
1,1,0.01030,0.02146,0.01260*
%
%ADD48ROUNDEDRECTD48*%
G04:AMPARAMS|DCode=49|XSize=35.5mil|YSize=29.59mil|CornerRadius=8.4mil|HoleSize=0mil|Usage=FLASHONLY|Rotation=270.000|XOffset=0mil|YOffset=0mil|HoleType=Round|Shape=RoundedRectangle|*
%AMROUNDEDRECTD49*
21,1,0.03550,0.01279,0,0,270.0*
21,1,0.01870,0.02959,0,0,270.0*
1,1,0.01680,-0.00640,-0.00935*
1,1,0.01680,-0.00640,0.00935*
1,1,0.01680,0.00640,0.00935*
1,1,0.01680,0.00640,-0.00935*
%
%ADD49ROUNDEDRECTD49*%
G04:AMPARAMS|DCode=50|XSize=51.24mil|YSize=129.98mil|CornerRadius=9.09mil|HoleSize=0mil|Usage=FLASHONLY|Rotation=270.000|XOffset=0mil|YOffset=0mil|HoleType=Round|Shape=RoundedRectangle|*
%AMROUNDEDRECTD50*
21,1,0.05124,0.11181,0,0,270.0*
21,1,0.03307,0.12998,0,0,270.0*
1,1,0.01817,-0.05591,-0.01654*
1,1,0.01817,-0.05591,0.01654*
1,1,0.01817,0.05591,0.01654*
1,1,0.01817,0.05591,-0.01654*
%
%ADD50ROUNDEDRECTD50*%
G04:AMPARAMS|DCode=51|XSize=70.93mil|YSize=212.66mil|CornerRadius=12.04mil|HoleSize=0mil|Usage=FLASHONLY|Rotation=270.000|XOffset=0mil|YOffset=0mil|HoleType=Round|Shape=RoundedRectangle|*
%AMROUNDEDRECTD51*
21,1,0.07093,0.18858,0,0,270.0*
21,1,0.04685,0.21266,0,0,270.0*
1,1,0.02408,-0.09429,-0.02343*
1,1,0.02408,-0.09429,0.02343*
1,1,0.02408,0.09429,0.02343*
1,1,0.02408,0.09429,-0.02343*
%
%ADD51ROUNDEDRECTD51*%
G04:AMPARAMS|DCode=52|XSize=13.84mil|YSize=63.05mil|CornerRadius=4.46mil|HoleSize=0mil|Usage=FLASHONLY|Rotation=270.000|XOffset=0mil|YOffset=0mil|HoleType=Round|Shape=RoundedRectangle|*
%AMROUNDEDRECTD52*
21,1,0.01384,0.05413,0,0,270.0*
21,1,0.00492,0.06305,0,0,270.0*
1,1,0.00892,-0.02707,-0.00246*
1,1,0.00892,-0.02707,0.00246*
1,1,0.00892,0.02707,0.00246*
1,1,0.00892,0.02707,-0.00246*
%
%ADD52ROUNDEDRECTD52*%
G04:AMPARAMS|DCode=53|XSize=13.84mil|YSize=63.05mil|CornerRadius=4.46mil|HoleSize=0mil|Usage=FLASHONLY|Rotation=0.000|XOffset=0mil|YOffset=0mil|HoleType=Round|Shape=RoundedRectangle|*
%AMROUNDEDRECTD53*
21,1,0.01384,0.05413,0,0,0.0*
21,1,0.00492,0.06305,0,0,0.0*
1,1,0.00892,0.00246,-0.02707*
1,1,0.00892,-0.00246,-0.02707*
1,1,0.00892,-0.00246,0.02707*
1,1,0.00892,0.00246,0.02707*
%
%ADD53ROUNDEDRECTD53*%
G04:AMPARAMS|DCode=54|XSize=37.47mil|YSize=27.62mil|CornerRadius=4.36mil|HoleSize=0mil|Usage=FLASHONLY|Rotation=90.000|XOffset=0mil|YOffset=0mil|HoleType=Round|Shape=RoundedRectangle|*
%AMROUNDEDRECTD54*
21,1,0.03747,0.01890,0,0,90.0*
21,1,0.02874,0.02762,0,0,90.0*
1,1,0.00872,0.00945,0.01437*
1,1,0.00872,0.00945,-0.01437*
1,1,0.00872,-0.00945,-0.01437*
1,1,0.00872,-0.00945,0.01437*
%
%ADD54ROUNDEDRECTD54*%
G04:AMPARAMS|DCode=55|XSize=53.21mil|YSize=31.56mil|CornerRadius=4.76mil|HoleSize=0mil|Usage=FLASHONLY|Rotation=90.000|XOffset=0mil|YOffset=0mil|HoleType=Round|Shape=RoundedRectangle|*
%AMROUNDEDRECTD55*
21,1,0.05321,0.02205,0,0,90.0*
21,1,0.04370,0.03156,0,0,90.0*
1,1,0.00951,0.01102,0.02185*
1,1,0.00951,0.01102,-0.02185*
1,1,0.00951,-0.01102,-0.02185*
1,1,0.00951,-0.01102,0.02185*
%
%ADD55ROUNDEDRECTD55*%
G04:AMPARAMS|DCode=56|XSize=53.21mil|YSize=35.5mil|CornerRadius=5.15mil|HoleSize=0mil|Usage=FLASHONLY|Rotation=270.000|XOffset=0mil|YOffset=0mil|HoleType=Round|Shape=RoundedRectangle|*
%AMROUNDEDRECTD56*
21,1,0.05321,0.02520,0,0,270.0*
21,1,0.04291,0.03550,0,0,270.0*
1,1,0.01030,-0.01260,-0.02146*
1,1,0.01030,-0.01260,0.02146*
1,1,0.01030,0.01260,0.02146*
1,1,0.01030,0.01260,-0.02146*
%
%ADD56ROUNDEDRECTD56*%
G04:AMPARAMS|DCode=57|XSize=35.5mil|YSize=29.59mil|CornerRadius=8.4mil|HoleSize=0mil|Usage=FLASHONLY|Rotation=180.000|XOffset=0mil|YOffset=0mil|HoleType=Round|Shape=RoundedRectangle|*
%AMROUNDEDRECTD57*
21,1,0.03550,0.01279,0,0,180.0*
21,1,0.01870,0.02959,0,0,180.0*
1,1,0.01680,-0.00935,0.00640*
1,1,0.01680,0.00935,0.00640*
1,1,0.01680,0.00935,-0.00640*
1,1,0.01680,-0.00935,-0.00640*
%
%ADD57ROUNDEDRECTD57*%
G04:AMPARAMS|DCode=58|XSize=59.12mil|YSize=55.18mil|CornerRadius=7.12mil|HoleSize=0mil|Usage=FLASHONLY|Rotation=90.000|XOffset=0mil|YOffset=0mil|HoleType=Round|Shape=RoundedRectangle|*
%AMROUNDEDRECTD58*
21,1,0.05912,0.04095,0,0,90.0*
21,1,0.04488,0.05518,0,0,90.0*
1,1,0.01424,0.02047,0.02244*
1,1,0.01424,0.02047,-0.02244*
1,1,0.01424,-0.02047,-0.02244*
1,1,0.01424,-0.02047,0.02244*
%
%ADD58ROUNDEDRECTD58*%
G04:AMPARAMS|DCode=59|XSize=31.56mil|YSize=122.11mil|CornerRadius=6.13mil|HoleSize=0mil|Usage=FLASHONLY|Rotation=90.000|XOffset=0mil|YOffset=0mil|HoleType=Round|Shape=RoundedRectangle|*
%AMROUNDEDRECTD59*
21,1,0.03156,0.10984,0,0,90.0*
21,1,0.01929,0.12211,0,0,90.0*
1,1,0.01227,0.05492,0.00965*
1,1,0.01227,0.05492,-0.00965*
1,1,0.01227,-0.05492,-0.00965*
1,1,0.01227,-0.05492,0.00965*
%
%ADD59ROUNDEDRECTD59*%
%ADD60R,0.12211X0.03156*%
G04:AMPARAMS|DCode=61|XSize=110.3mil|YSize=70.93mil|CornerRadius=8.69mil|HoleSize=0mil|Usage=FLASHONLY|Rotation=270.000|XOffset=0mil|YOffset=0mil|HoleType=Round|Shape=RoundedRectangle|*
%AMROUNDEDRECTD61*
21,1,0.11030,0.05354,0,0,270.0*
21,1,0.09291,0.07093,0,0,270.0*
1,1,0.01739,-0.02677,-0.04646*
1,1,0.01739,-0.02677,0.04646*
1,1,0.01739,0.02677,0.04646*
1,1,0.01739,0.02677,-0.04646*
%
%ADD61ROUNDEDRECTD61*%
G04:AMPARAMS|DCode=62|XSize=27.62mil|YSize=66.99mil|CornerRadius=4.36mil|HoleSize=0mil|Usage=FLASHONLY|Rotation=180.000|XOffset=0mil|YOffset=0mil|HoleType=Round|Shape=RoundedRectangle|*
%AMROUNDEDRECTD62*
21,1,0.02762,0.05827,0,0,180.0*
21,1,0.01890,0.06699,0,0,180.0*
1,1,0.00872,-0.00945,0.02913*
1,1,0.00872,0.00945,0.02913*
1,1,0.00872,0.00945,-0.02913*
1,1,0.00872,-0.00945,-0.02913*
%
%ADD62ROUNDEDRECTD62*%
G04:AMPARAMS|DCode=63|XSize=23.68mil|YSize=55.18mil|CornerRadius=6.92mil|HoleSize=0mil|Usage=FLASHONLY|Rotation=0.000|XOffset=0mil|YOffset=0mil|HoleType=Round|Shape=RoundedRectangle|*
%AMROUNDEDRECTD63*
21,1,0.02368,0.04134,0,0,0.0*
21,1,0.00984,0.05518,0,0,0.0*
1,1,0.01384,0.00492,-0.02067*
1,1,0.01384,-0.00492,-0.02067*
1,1,0.01384,-0.00492,0.02067*
1,1,0.01384,0.00492,0.02067*
%
%ADD63ROUNDEDRECTD63*%
G04:AMPARAMS|DCode=64|XSize=23.68mil|YSize=55.18mil|CornerRadius=6.92mil|HoleSize=0mil|Usage=FLASHONLY|Rotation=270.000|XOffset=0mil|YOffset=0mil|HoleType=Round|Shape=RoundedRectangle|*
%AMROUNDEDRECTD64*
21,1,0.02368,0.04134,0,0,270.0*
21,1,0.00984,0.05518,0,0,270.0*
1,1,0.01384,-0.02067,-0.00492*
1,1,0.01384,-0.02067,0.00492*
1,1,0.01384,0.02067,0.00492*
1,1,0.01384,0.02067,-0.00492*
%
%ADD64ROUNDEDRECTD64*%
G04:AMPARAMS|DCode=65|XSize=133.92mil|YSize=98.49mil|CornerRadius=11.45mil|HoleSize=0mil|Usage=FLASHONLY|Rotation=0.000|XOffset=0mil|YOffset=0mil|HoleType=Round|Shape=RoundedRectangle|*
%AMROUNDEDRECTD65*
21,1,0.13392,0.07559,0,0,0.0*
21,1,0.11102,0.09849,0,0,0.0*
1,1,0.02290,0.05551,-0.03780*
1,1,0.02290,-0.05551,-0.03780*
1,1,0.02290,-0.05551,0.03780*
1,1,0.02290,0.05551,0.03780*
%
%ADD65ROUNDEDRECTD65*%
G04:AMPARAMS|DCode=66|XSize=41.4mil|YSize=90.61mil|CornerRadius=5.74mil|HoleSize=0mil|Usage=FLASHONLY|Rotation=0.000|XOffset=0mil|YOffset=0mil|HoleType=Round|Shape=RoundedRectangle|*
%AMROUNDEDRECTD66*
21,1,0.04140,0.07913,0,0,0.0*
21,1,0.02992,0.09061,0,0,0.0*
1,1,0.01148,0.01496,-0.03957*
1,1,0.01148,-0.01496,-0.03957*
1,1,0.01148,-0.01496,0.03957*
1,1,0.01148,0.01496,0.03957*
%
%ADD66ROUNDEDRECTD66*%
G04:AMPARAMS|DCode=67|XSize=53.21mil|YSize=31.56mil|CornerRadius=4.76mil|HoleSize=0mil|Usage=FLASHONLY|Rotation=0.000|XOffset=0mil|YOffset=0mil|HoleType=Round|Shape=RoundedRectangle|*
%AMROUNDEDRECTD67*
21,1,0.05321,0.02205,0,0,0.0*
21,1,0.04370,0.03156,0,0,0.0*
1,1,0.00951,0.02185,-0.01102*
1,1,0.00951,-0.02185,-0.01102*
1,1,0.00951,-0.02185,0.01102*
1,1,0.00951,0.02185,0.01102*
%
%ADD67ROUNDEDRECTD67*%
G04:AMPARAMS|DCode=68|XSize=70.93mil|YSize=51.24mil|CornerRadius=6.72mil|HoleSize=0mil|Usage=FLASHONLY|Rotation=90.000|XOffset=0mil|YOffset=0mil|HoleType=Round|Shape=RoundedRectangle|*
%AMROUNDEDRECTD68*
21,1,0.07093,0.03780,0,0,90.0*
21,1,0.05748,0.05124,0,0,90.0*
1,1,0.01345,0.01890,0.02874*
1,1,0.01345,0.01890,-0.02874*
1,1,0.01345,-0.01890,-0.02874*
1,1,0.01345,-0.01890,0.02874*
%
%ADD68ROUNDEDRECTD68*%
G04:AMPARAMS|DCode=69|XSize=47.31mil|YSize=35.5mil|CornerRadius=6.72mil|HoleSize=0mil|Usage=FLASHONLY|Rotation=180.000|XOffset=0mil|YOffset=0mil|HoleType=Round|Shape=RoundedRectangle|*
%AMROUNDEDRECTD69*
21,1,0.04731,0.02205,0,0,180.0*
21,1,0.03386,0.03550,0,0,180.0*
1,1,0.01345,-0.01693,0.01102*
1,1,0.01345,0.01693,0.01102*
1,1,0.01345,0.01693,-0.01102*
1,1,0.01345,-0.01693,-0.01102*
%
%ADD69ROUNDEDRECTD69*%
G04:AMPARAMS|DCode=70|XSize=59.12mil|YSize=35.5mil|CornerRadius=5.15mil|HoleSize=0mil|Usage=FLASHONLY|Rotation=315.000|XOffset=0mil|YOffset=0mil|HoleType=Round|Shape=RoundedRectangle|*
%AMROUNDEDRECTD70*
21,1,0.05912,0.02520,0,0,315.0*
21,1,0.04882,0.03550,0,0,315.0*
1,1,0.01030,0.00835,-0.02617*
1,1,0.01030,-0.02617,0.00835*
1,1,0.01030,-0.00835,0.02617*
1,1,0.01030,0.02617,-0.00835*
%
%ADD70ROUNDEDRECTD70*%
G04:AMPARAMS|DCode=71|XSize=78.8mil|YSize=102.43mil|CornerRadius=13.22mil|HoleSize=0mil|Usage=FLASHONLY|Rotation=180.000|XOffset=0mil|YOffset=0mil|HoleType=Round|Shape=RoundedRectangle|*
%AMROUNDEDRECTD71*
21,1,0.07880,0.07598,0,0,180.0*
21,1,0.05236,0.10243,0,0,180.0*
1,1,0.02644,-0.02618,0.03799*
1,1,0.02644,0.02618,0.03799*
1,1,0.02644,0.02618,-0.03799*
1,1,0.02644,-0.02618,-0.03799*
%
%ADD71ROUNDEDRECTD71*%
G04:AMPARAMS|DCode=72|XSize=94.55mil|YSize=68.96mil|CornerRadius=11.74mil|HoleSize=0mil|Usage=FLASHONLY|Rotation=180.000|XOffset=0mil|YOffset=0mil|HoleType=Round|Shape=RoundedRectangle|*
%AMROUNDEDRECTD72*
21,1,0.09455,0.04547,0,0,180.0*
21,1,0.07106,0.06896,0,0,180.0*
1,1,0.02349,-0.03553,0.02274*
1,1,0.02349,0.03553,0.02274*
1,1,0.02349,0.03553,-0.02274*
1,1,0.02349,-0.03553,-0.02274*
%
%ADD72ROUNDEDRECTD72*%
G04:AMPARAMS|DCode=73|XSize=15.02mil|YSize=47.31mil|CornerRadius=3.65mil|HoleSize=0mil|Usage=FLASHONLY|Rotation=180.000|XOffset=0mil|YOffset=0mil|HoleType=Round|Shape=RoundedRectangle|*
%AMROUNDEDRECTD73*
21,1,0.01502,0.04000,0,0,180.0*
21,1,0.00772,0.04731,0,0,180.0*
1,1,0.00731,-0.00386,0.02000*
1,1,0.00731,0.00386,0.02000*
1,1,0.00731,0.00386,-0.02000*
1,1,0.00731,-0.00386,-0.02000*
%
%ADD73ROUNDEDRECTD73*%
G04:AMPARAMS|DCode=74|XSize=236.28mil|YSize=236.28mil|CornerRadius=13.61mil|HoleSize=0mil|Usage=FLASHONLY|Rotation=270.000|XOffset=0mil|YOffset=0mil|HoleType=Round|Shape=RoundedRectangle|*
%AMROUNDEDRECTD74*
21,1,0.23628,0.20906,0,0,270.0*
21,1,0.20906,0.23628,0,0,270.0*
1,1,0.02723,-0.10453,-0.10453*
1,1,0.02723,-0.10453,0.10453*
1,1,0.02723,0.10453,0.10453*
1,1,0.02723,0.10453,-0.10453*
%
%ADD74ROUNDEDRECTD74*%
%ADD75C,0.00400*%
%ADD76C,0.01975*%
D45*
X140945Y119583D02*
D03*
X150000D02*
D03*
X159055D02*
D03*
D46*
X150000Y142417D02*
D03*
D47*
X74000Y30953D02*
D03*
Y25047D02*
D03*
X68000Y30953D02*
D03*
Y25047D02*
D03*
X74000Y40953D02*
D03*
Y35047D02*
D03*
X68000Y40953D02*
D03*
Y35047D02*
D03*
X74000Y20953D02*
D03*
Y15047D02*
D03*
X68000Y20953D02*
D03*
Y15047D02*
D03*
X74000Y50953D02*
D03*
Y45047D02*
D03*
X68000Y50953D02*
D03*
Y45047D02*
D03*
X74000Y60953D02*
D03*
Y55047D02*
D03*
X68000Y60953D02*
D03*
Y55047D02*
D03*
X74000Y70953D02*
D03*
Y65047D02*
D03*
X68000Y70953D02*
D03*
Y65047D02*
D03*
X74000Y80953D02*
D03*
Y75047D02*
D03*
X68000Y80953D02*
D03*
Y75047D02*
D03*
X74000Y90953D02*
D03*
Y85047D02*
D03*
X68000Y90953D02*
D03*
Y85047D02*
D03*
X74000Y100953D02*
D03*
Y95047D02*
D03*
X68000Y100953D02*
D03*
Y95047D02*
D03*
X74000Y110953D02*
D03*
Y105047D02*
D03*
X68000Y110953D02*
D03*
Y105047D02*
D03*
X143000Y98953D02*
D03*
Y93047D02*
D03*
X74000Y120953D02*
D03*
Y115047D02*
D03*
X68000Y120953D02*
D03*
Y115047D02*
D03*
X74000Y130953D02*
D03*
Y125047D02*
D03*
X68000Y130953D02*
D03*
Y125047D02*
D03*
X74000Y140953D02*
D03*
Y135047D02*
D03*
X203000Y72047D02*
D03*
Y77953D02*
D03*
X68000Y140953D02*
D03*
Y135047D02*
D03*
X74000Y150953D02*
D03*
Y145047D02*
D03*
X68000Y150953D02*
D03*
Y145047D02*
D03*
X74000Y160953D02*
D03*
Y155047D02*
D03*
X68000Y160953D02*
D03*
Y155047D02*
D03*
X74000Y170953D02*
D03*
Y165047D02*
D03*
X68000Y170953D02*
D03*
Y165047D02*
D03*
X74000Y180953D02*
D03*
Y175047D02*
D03*
X68000Y180953D02*
D03*
Y175047D02*
D03*
X74000Y190953D02*
D03*
Y185047D02*
D03*
X68000Y190953D02*
D03*
Y185047D02*
D03*
Y195047D02*
D03*
Y200953D02*
D03*
X74000Y195047D02*
D03*
Y200953D02*
D03*
X156000Y91953D02*
D03*
Y86047D02*
D03*
X150000Y88779D02*
D03*
Y82874D02*
D03*
X174000Y78047D02*
D03*
Y83953D02*
D03*
X179000Y75047D02*
D03*
Y80953D02*
D03*
X181000Y94047D02*
D03*
Y99953D02*
D03*
X186000D02*
D03*
Y94047D02*
D03*
D48*
X153000Y60457D02*
D03*
Y67543D02*
D03*
X146000Y60457D02*
D03*
Y67543D02*
D03*
X227000Y152543D02*
D03*
Y145457D02*
D03*
X259000Y111543D02*
D03*
Y104457D02*
D03*
X214000Y100543D02*
D03*
Y93457D02*
D03*
X231043Y40425D02*
D03*
Y33339D02*
D03*
X172980Y34425D02*
D03*
Y27339D02*
D03*
X165980Y34425D02*
D03*
Y27339D02*
D03*
X213000Y67457D02*
D03*
Y74543D02*
D03*
X198000Y95457D02*
D03*
Y102543D02*
D03*
D49*
X62854Y26000D02*
D03*
X57146D02*
D03*
X62854Y36000D02*
D03*
X57146D02*
D03*
X62854Y46000D02*
D03*
X57146D02*
D03*
X62854Y16000D02*
D03*
X57146D02*
D03*
X62854Y56000D02*
D03*
X57146D02*
D03*
X62854Y66000D02*
D03*
X57146D02*
D03*
X62854Y76000D02*
D03*
X57146D02*
D03*
X62854Y86000D02*
D03*
X57146D02*
D03*
X62854Y96000D02*
D03*
X57146D02*
D03*
X62854Y106000D02*
D03*
X57146D02*
D03*
X62854Y116000D02*
D03*
X57146D02*
D03*
X62854Y126000D02*
D03*
X57146D02*
D03*
X62854Y136000D02*
D03*
X57146D02*
D03*
X62854Y146000D02*
D03*
X57146D02*
D03*
X62854Y156000D02*
D03*
X57146D02*
D03*
X62854Y166000D02*
D03*
X57146D02*
D03*
X62854Y176000D02*
D03*
X57146D02*
D03*
X62854Y186000D02*
D03*
X57146D02*
D03*
X229854Y47000D02*
D03*
X224146D02*
D03*
X167854Y81000D02*
D03*
X162146D02*
D03*
X167854Y86000D02*
D03*
X162146D02*
D03*
D50*
X34055Y37697D02*
D03*
Y45571D02*
D03*
Y53445D02*
D03*
Y61319D02*
D03*
Y69193D02*
D03*
Y77067D02*
D03*
Y84941D02*
D03*
Y92815D02*
D03*
Y29823D02*
D03*
Y21949D02*
D03*
X34075Y145315D02*
D03*
Y153189D02*
D03*
Y161063D02*
D03*
Y168937D02*
D03*
Y176811D02*
D03*
Y184685D02*
D03*
Y192559D02*
D03*
Y200433D02*
D03*
Y137441D02*
D03*
Y129567D02*
D03*
X258425Y160811D02*
D03*
Y152937D02*
D03*
Y145063D02*
D03*
Y137189D02*
D03*
D51*
X12480Y11319D02*
D03*
Y103445D02*
D03*
X12500Y118937D02*
D03*
Y211063D02*
D03*
X280000Y170850D02*
D03*
Y127150D02*
D03*
D52*
X136441Y89764D02*
D03*
Y87795D02*
D03*
Y85827D02*
D03*
Y83858D02*
D03*
Y81890D02*
D03*
Y79921D02*
D03*
Y77953D02*
D03*
Y75984D02*
D03*
Y74016D02*
D03*
Y72047D02*
D03*
Y70079D02*
D03*
Y68110D02*
D03*
Y66142D02*
D03*
Y64173D02*
D03*
Y62205D02*
D03*
Y60236D02*
D03*
X91559D02*
D03*
Y62205D02*
D03*
Y64173D02*
D03*
Y66142D02*
D03*
Y68110D02*
D03*
Y70079D02*
D03*
Y72047D02*
D03*
Y74016D02*
D03*
Y75984D02*
D03*
Y77953D02*
D03*
Y79921D02*
D03*
Y81890D02*
D03*
Y83858D02*
D03*
Y85827D02*
D03*
Y87795D02*
D03*
Y89764D02*
D03*
D53*
X128764Y52559D02*
D03*
X126795D02*
D03*
X124827D02*
D03*
X122858D02*
D03*
X120890D02*
D03*
X118921D02*
D03*
X116953D02*
D03*
X114984D02*
D03*
X113016D02*
D03*
X111047D02*
D03*
X109079D02*
D03*
X107110D02*
D03*
X105142D02*
D03*
X103173D02*
D03*
X101205D02*
D03*
X99236D02*
D03*
Y97441D02*
D03*
X101205D02*
D03*
X103173D02*
D03*
X105142D02*
D03*
X107110D02*
D03*
X109079D02*
D03*
X111047D02*
D03*
X113016D02*
D03*
X114984D02*
D03*
X116953D02*
D03*
X118921D02*
D03*
X120890D02*
D03*
X122858D02*
D03*
X124827D02*
D03*
X126795D02*
D03*
X128764D02*
D03*
D54*
X67047Y10000D02*
D03*
X72953D02*
D03*
X160953Y75000D02*
D03*
X155047D02*
D03*
X150953D02*
D03*
X145047D02*
D03*
D55*
X246740Y48000D02*
D03*
X239260D02*
D03*
X231783Y27882D02*
D03*
X224303D02*
D03*
X246740Y40000D02*
D03*
X239260D02*
D03*
X232740Y165000D02*
D03*
X225260D02*
D03*
X204740Y202000D02*
D03*
X197260D02*
D03*
X215740D02*
D03*
X208260D02*
D03*
D56*
X156457Y102000D02*
D03*
X163543D02*
D03*
X236543Y195000D02*
D03*
X229457D02*
D03*
X232543Y172000D02*
D03*
X225457D02*
D03*
D57*
X62000Y201146D02*
D03*
Y206854D02*
D03*
X80000Y201146D02*
D03*
Y206854D02*
D03*
X225043Y35028D02*
D03*
Y40736D02*
D03*
X172543Y47028D02*
D03*
Y52736D02*
D03*
D58*
X246094Y195000D02*
D03*
X257906D02*
D03*
D59*
X227437Y75922D02*
D03*
Y70922D02*
D03*
Y65922D02*
D03*
X243972Y75922D02*
D03*
Y70922D02*
D03*
Y65922D02*
D03*
X227437Y60922D02*
D03*
X243972D02*
D03*
X227437Y55922D02*
D03*
D60*
X243972D02*
D03*
D61*
X170311Y17882D02*
D03*
X161650D02*
D03*
D62*
X221437Y94476D02*
D03*
X226437D02*
D03*
X231437D02*
D03*
X236437D02*
D03*
X241437D02*
D03*
X246437D02*
D03*
X251437D02*
D03*
X221437Y116524D02*
D03*
X226437D02*
D03*
X231437D02*
D03*
X236437D02*
D03*
X241437D02*
D03*
X246437D02*
D03*
X251437D02*
D03*
D63*
X208567Y57205D02*
D03*
X205417D02*
D03*
X202268D02*
D03*
X199118D02*
D03*
X195968D02*
D03*
X192819D02*
D03*
X189669D02*
D03*
X186520D02*
D03*
Y22559D02*
D03*
X189669D02*
D03*
X192819D02*
D03*
X195968D02*
D03*
X199118D02*
D03*
X202268D02*
D03*
X205417D02*
D03*
X208567D02*
D03*
D64*
X180220Y50906D02*
D03*
Y47756D02*
D03*
Y44606D02*
D03*
Y41457D02*
D03*
Y38307D02*
D03*
Y35157D02*
D03*
Y32008D02*
D03*
Y28858D02*
D03*
X214866D02*
D03*
Y32008D02*
D03*
Y35157D02*
D03*
Y38307D02*
D03*
Y41457D02*
D03*
Y44606D02*
D03*
Y47756D02*
D03*
Y50906D02*
D03*
D65*
X203850Y167740D02*
D03*
D66*
X194795Y192150D02*
D03*
X203850D02*
D03*
X212906D02*
D03*
D67*
X245000Y179260D02*
D03*
Y186740D02*
D03*
X235000Y186740D02*
D03*
Y179260D02*
D03*
X227000Y186740D02*
D03*
Y179260D02*
D03*
D68*
X245905Y143000D02*
D03*
X234095D02*
D03*
X245905Y153000D02*
D03*
X234095D02*
D03*
D69*
X246299Y132756D02*
D03*
X233701D02*
D03*
Y127244D02*
D03*
X246299D02*
D03*
D70*
X244784Y30784D02*
D03*
X239216Y25216D02*
D03*
D71*
X254126Y183000D02*
D03*
X269874D02*
D03*
D72*
X185000Y188996D02*
D03*
Y201004D02*
D03*
D73*
X197890Y87858D02*
D03*
X195921D02*
D03*
X193953D02*
D03*
X191984D02*
D03*
X190016D02*
D03*
X188047D02*
D03*
X186079D02*
D03*
X184110D02*
D03*
X197890Y70142D02*
D03*
X195921D02*
D03*
X193953D02*
D03*
X191984D02*
D03*
X190016D02*
D03*
X188047D02*
D03*
X186079D02*
D03*
X184110D02*
D03*
D74*
X114000Y75000D02*
D03*
D75*
X106299Y15748D02*
D03*
X275590Y204724D02*
D03*
X106299D02*
D03*
X275590Y15748D02*
D03*
D76*
X129000Y207000D02*
D03*
X103000Y182000D02*
D03*
X159000Y206000D02*
D03*
X141000Y147000D02*
D03*
X157000Y149000D02*
D03*
X153000D02*
D03*
X149000D02*
D03*
X145000D02*
D03*
X216000Y113000D02*
D03*
X209000Y71000D02*
D03*
X206000Y103000D02*
D03*
X259000Y133000D02*
D03*
X190000Y98000D02*
D03*
X193000Y202000D02*
D03*
X141000Y106000D02*
D03*
X138000Y102000D02*
D03*
X131000Y72000D02*
D03*
X132000Y57000D02*
D03*
X137000D02*
D03*
X235000Y37000D02*
D03*
X234000Y47000D02*
D03*
X220043Y37882D02*
D03*
X235705Y72882D02*
D03*
X256000Y133000D02*
D03*
X225000Y195000D02*
D03*
X227000Y89000D02*
D03*
Y142000D02*
D03*
X214000Y90000D02*
D03*
X174980Y43882D02*
D03*
X194480Y171382D02*
D03*
Y167382D02*
D03*
Y163382D02*
D03*
X213480Y171382D02*
D03*
Y167382D02*
D03*
Y163382D02*
D03*
X210480Y160382D02*
D03*
X197480D02*
D03*
X201480D02*
D03*
X206480D02*
D03*
X54000Y26000D02*
D03*
Y16000D02*
D03*
Y36000D02*
D03*
Y46000D02*
D03*
Y56000D02*
D03*
Y66000D02*
D03*
Y76000D02*
D03*
Y86000D02*
D03*
Y96000D02*
D03*
Y106000D02*
D03*
Y116000D02*
D03*
Y126000D02*
D03*
Y136000D02*
D03*
Y146000D02*
D03*
Y156000D02*
D03*
Y166000D02*
D03*
Y176000D02*
D03*
Y186000D02*
D03*
X58000Y208000D02*
D03*
X84000D02*
D03*
X259000Y100000D02*
D03*
X199000Y66000D02*
D03*
X195000Y65000D02*
D03*
X213000Y64000D02*
D03*
X159000Y70000D02*
D03*
X163000Y97000D02*
D03*
M02*
