M48
;Layer_Color=9474304
;FILE_FORMAT=2:5
INCH,LZ
;TYPE=PLATED
T1F00S00C0.01575
T2F00S00C0.11811
%
T01
X0054Y0016
Y0026
Y0036
Y0046
Y0056
Y0066
Y0076
Y0086
Y0096
Y0106
Y0116
Y0126
X0141Y0106
X0138Y0102
X0163Y0097
X019Y0098
X0206Y0103
X0216Y0113
X0214Y009
X0227Y0089
X0235705Y0072882
X0234Y0047
X0235Y0037
X0220043Y0037882
X0213Y0064
X0209Y0071
X0199Y0066
X0195Y0065
X0159Y007
X0131Y0072
X0132Y0057
X0137
X017498Y0043882
X0259Y01
Y0133
X0256
X0227Y0142
X021348Y0163382
Y0167382
Y0171382
X021048Y0160382
X020648
X020148
X019748
X019448Y0163382
Y0167382
Y0171382
X0193Y0202
X0159Y0206
X0129Y0207
X0141Y0147
X0145Y0149
X0149
X0153
X0157
X0225Y0195
X0103Y0182
X0084Y0208
X0058
X0054Y0186
Y0176
Y0166
Y0156
Y0146
Y0136
T02
X0114Y0075
M30
