G04 Layer_Physical_Order=1*
G04 Layer_Color=255*
%FSLAX25Y25*%
%MOIN*%
G70*
G01*
G75*
G04:AMPARAMS|DCode=10|XSize=37.4mil|YSize=94.49mil|CornerRadius=9.35mil|HoleSize=0mil|Usage=FLASHONLY|Rotation=180.000|XOffset=0mil|YOffset=0mil|HoleType=Round|Shape=RoundedRectangle|*
%AMROUNDEDRECTD10*
21,1,0.03740,0.07579,0,0,180.0*
21,1,0.01870,0.09449,0,0,180.0*
1,1,0.01870,-0.00935,0.03789*
1,1,0.01870,0.00935,0.03789*
1,1,0.01870,0.00935,-0.03789*
1,1,0.01870,-0.00935,-0.03789*
%
%ADD10ROUNDEDRECTD10*%
G04:AMPARAMS|DCode=11|XSize=129.92mil|YSize=94.49mil|CornerRadius=14.17mil|HoleSize=0mil|Usage=FLASHONLY|Rotation=180.000|XOffset=0mil|YOffset=0mil|HoleType=Round|Shape=RoundedRectangle|*
%AMROUNDEDRECTD11*
21,1,0.12992,0.06614,0,0,180.0*
21,1,0.10157,0.09449,0,0,180.0*
1,1,0.02835,-0.05079,0.03307*
1,1,0.02835,0.05079,0.03307*
1,1,0.02835,0.05079,-0.03307*
1,1,0.02835,-0.05079,-0.03307*
%
%ADD11ROUNDEDRECTD11*%
G04:AMPARAMS|DCode=12|XSize=33.47mil|YSize=23.62mil|CornerRadius=2.36mil|HoleSize=0mil|Usage=FLASHONLY|Rotation=0.000|XOffset=0mil|YOffset=0mil|HoleType=Round|Shape=RoundedRectangle|*
%AMROUNDEDRECTD12*
21,1,0.03347,0.01890,0,0,0.0*
21,1,0.02874,0.02362,0,0,0.0*
1,1,0.00472,0.01437,-0.00945*
1,1,0.00472,-0.01437,-0.00945*
1,1,0.00472,-0.01437,0.00945*
1,1,0.00472,0.01437,0.00945*
%
%ADD12ROUNDEDRECTD12*%
G04:AMPARAMS|DCode=13|XSize=49.21mil|YSize=31.5mil|CornerRadius=3.15mil|HoleSize=0mil|Usage=FLASHONLY|Rotation=0.000|XOffset=0mil|YOffset=0mil|HoleType=Round|Shape=RoundedRectangle|*
%AMROUNDEDRECTD13*
21,1,0.04921,0.02520,0,0,0.0*
21,1,0.04291,0.03150,0,0,0.0*
1,1,0.00630,0.02146,-0.01260*
1,1,0.00630,-0.02146,-0.01260*
1,1,0.00630,-0.02146,0.01260*
1,1,0.00630,0.02146,0.01260*
%
%ADD13ROUNDEDRECTD13*%
G04:AMPARAMS|DCode=14|XSize=31.5mil|YSize=25.59mil|CornerRadius=6.4mil|HoleSize=0mil|Usage=FLASHONLY|Rotation=270.000|XOffset=0mil|YOffset=0mil|HoleType=Round|Shape=RoundedRectangle|*
%AMROUNDEDRECTD14*
21,1,0.03150,0.01279,0,0,270.0*
21,1,0.01870,0.02559,0,0,270.0*
1,1,0.01279,-0.00640,-0.00935*
1,1,0.01279,-0.00640,0.00935*
1,1,0.01279,0.00640,0.00935*
1,1,0.01279,0.00640,-0.00935*
%
%ADD14ROUNDEDRECTD14*%
G04:AMPARAMS|DCode=15|XSize=47.24mil|YSize=125.98mil|CornerRadius=7.09mil|HoleSize=0mil|Usage=FLASHONLY|Rotation=270.000|XOffset=0mil|YOffset=0mil|HoleType=Round|Shape=RoundedRectangle|*
%AMROUNDEDRECTD15*
21,1,0.04724,0.11181,0,0,270.0*
21,1,0.03307,0.12598,0,0,270.0*
1,1,0.01417,-0.05591,-0.01654*
1,1,0.01417,-0.05591,0.01654*
1,1,0.01417,0.05591,0.01654*
1,1,0.01417,0.05591,-0.01654*
%
%ADD15ROUNDEDRECTD15*%
G04:AMPARAMS|DCode=16|XSize=66.93mil|YSize=208.66mil|CornerRadius=10.04mil|HoleSize=0mil|Usage=FLASHONLY|Rotation=270.000|XOffset=0mil|YOffset=0mil|HoleType=Round|Shape=RoundedRectangle|*
%AMROUNDEDRECTD16*
21,1,0.06693,0.18858,0,0,270.0*
21,1,0.04685,0.20866,0,0,270.0*
1,1,0.02008,-0.09429,-0.02343*
1,1,0.02008,-0.09429,0.02343*
1,1,0.02008,0.09429,0.02343*
1,1,0.02008,0.09429,-0.02343*
%
%ADD16ROUNDEDRECTD16*%
G04:AMPARAMS|DCode=17|XSize=9.84mil|YSize=59.05mil|CornerRadius=2.46mil|HoleSize=0mil|Usage=FLASHONLY|Rotation=270.000|XOffset=0mil|YOffset=0mil|HoleType=Round|Shape=RoundedRectangle|*
%AMROUNDEDRECTD17*
21,1,0.00984,0.05413,0,0,270.0*
21,1,0.00492,0.05905,0,0,270.0*
1,1,0.00492,-0.02707,-0.00246*
1,1,0.00492,-0.02707,0.00246*
1,1,0.00492,0.02707,0.00246*
1,1,0.00492,0.02707,-0.00246*
%
%ADD17ROUNDEDRECTD17*%
G04:AMPARAMS|DCode=18|XSize=9.84mil|YSize=59.05mil|CornerRadius=2.46mil|HoleSize=0mil|Usage=FLASHONLY|Rotation=0.000|XOffset=0mil|YOffset=0mil|HoleType=Round|Shape=RoundedRectangle|*
%AMROUNDEDRECTD18*
21,1,0.00984,0.05413,0,0,0.0*
21,1,0.00492,0.05905,0,0,0.0*
1,1,0.00492,0.00246,-0.02707*
1,1,0.00492,-0.00246,-0.02707*
1,1,0.00492,-0.00246,0.02707*
1,1,0.00492,0.00246,0.02707*
%
%ADD18ROUNDEDRECTD18*%
G04:AMPARAMS|DCode=19|XSize=33.47mil|YSize=23.62mil|CornerRadius=2.36mil|HoleSize=0mil|Usage=FLASHONLY|Rotation=90.000|XOffset=0mil|YOffset=0mil|HoleType=Round|Shape=RoundedRectangle|*
%AMROUNDEDRECTD19*
21,1,0.03347,0.01890,0,0,90.0*
21,1,0.02874,0.02362,0,0,90.0*
1,1,0.00472,0.00945,0.01437*
1,1,0.00472,0.00945,-0.01437*
1,1,0.00472,-0.00945,-0.01437*
1,1,0.00472,-0.00945,0.01437*
%
%ADD19ROUNDEDRECTD19*%
G04:AMPARAMS|DCode=20|XSize=49.21mil|YSize=27.56mil|CornerRadius=2.76mil|HoleSize=0mil|Usage=FLASHONLY|Rotation=90.000|XOffset=0mil|YOffset=0mil|HoleType=Round|Shape=RoundedRectangle|*
%AMROUNDEDRECTD20*
21,1,0.04921,0.02205,0,0,90.0*
21,1,0.04370,0.02756,0,0,90.0*
1,1,0.00551,0.01102,0.02185*
1,1,0.00551,0.01102,-0.02185*
1,1,0.00551,-0.01102,-0.02185*
1,1,0.00551,-0.01102,0.02185*
%
%ADD20ROUNDEDRECTD20*%
G04:AMPARAMS|DCode=21|XSize=49.21mil|YSize=31.5mil|CornerRadius=3.15mil|HoleSize=0mil|Usage=FLASHONLY|Rotation=270.000|XOffset=0mil|YOffset=0mil|HoleType=Round|Shape=RoundedRectangle|*
%AMROUNDEDRECTD21*
21,1,0.04921,0.02520,0,0,270.0*
21,1,0.04291,0.03150,0,0,270.0*
1,1,0.00630,-0.01260,-0.02146*
1,1,0.00630,-0.01260,0.02146*
1,1,0.00630,0.01260,0.02146*
1,1,0.00630,0.01260,-0.02146*
%
%ADD21ROUNDEDRECTD21*%
G04:AMPARAMS|DCode=22|XSize=31.5mil|YSize=25.59mil|CornerRadius=6.4mil|HoleSize=0mil|Usage=FLASHONLY|Rotation=180.000|XOffset=0mil|YOffset=0mil|HoleType=Round|Shape=RoundedRectangle|*
%AMROUNDEDRECTD22*
21,1,0.03150,0.01279,0,0,180.0*
21,1,0.01870,0.02559,0,0,180.0*
1,1,0.01279,-0.00935,0.00640*
1,1,0.01279,0.00935,0.00640*
1,1,0.01279,0.00935,-0.00640*
1,1,0.01279,-0.00935,-0.00640*
%
%ADD22ROUNDEDRECTD22*%
G04:AMPARAMS|DCode=23|XSize=55.12mil|YSize=51.18mil|CornerRadius=5.12mil|HoleSize=0mil|Usage=FLASHONLY|Rotation=90.000|XOffset=0mil|YOffset=0mil|HoleType=Round|Shape=RoundedRectangle|*
%AMROUNDEDRECTD23*
21,1,0.05512,0.04095,0,0,90.0*
21,1,0.04488,0.05118,0,0,90.0*
1,1,0.01024,0.02047,0.02244*
1,1,0.01024,0.02047,-0.02244*
1,1,0.01024,-0.02047,-0.02244*
1,1,0.01024,-0.02047,0.02244*
%
%ADD23ROUNDEDRECTD23*%
G04:AMPARAMS|DCode=24|XSize=27.56mil|YSize=118.11mil|CornerRadius=4.13mil|HoleSize=0mil|Usage=FLASHONLY|Rotation=90.000|XOffset=0mil|YOffset=0mil|HoleType=Round|Shape=RoundedRectangle|*
%AMROUNDEDRECTD24*
21,1,0.02756,0.10984,0,0,90.0*
21,1,0.01929,0.11811,0,0,90.0*
1,1,0.00827,0.05492,0.00965*
1,1,0.00827,0.05492,-0.00965*
1,1,0.00827,-0.05492,-0.00965*
1,1,0.00827,-0.05492,0.00965*
%
%ADD24ROUNDEDRECTD24*%
%ADD25R,0.11811X0.02756*%
G04:AMPARAMS|DCode=26|XSize=106.3mil|YSize=66.93mil|CornerRadius=6.69mil|HoleSize=0mil|Usage=FLASHONLY|Rotation=270.000|XOffset=0mil|YOffset=0mil|HoleType=Round|Shape=RoundedRectangle|*
%AMROUNDEDRECTD26*
21,1,0.10630,0.05354,0,0,270.0*
21,1,0.09291,0.06693,0,0,270.0*
1,1,0.01339,-0.02677,-0.04646*
1,1,0.01339,-0.02677,0.04646*
1,1,0.01339,0.02677,0.04646*
1,1,0.01339,0.02677,-0.04646*
%
%ADD26ROUNDEDRECTD26*%
G04:AMPARAMS|DCode=27|XSize=23.62mil|YSize=62.99mil|CornerRadius=2.36mil|HoleSize=0mil|Usage=FLASHONLY|Rotation=180.000|XOffset=0mil|YOffset=0mil|HoleType=Round|Shape=RoundedRectangle|*
%AMROUNDEDRECTD27*
21,1,0.02362,0.05827,0,0,180.0*
21,1,0.01890,0.06299,0,0,180.0*
1,1,0.00472,-0.00945,0.02913*
1,1,0.00472,0.00945,0.02913*
1,1,0.00472,0.00945,-0.02913*
1,1,0.00472,-0.00945,-0.02913*
%
%ADD27ROUNDEDRECTD27*%
G04:AMPARAMS|DCode=28|XSize=19.68mil|YSize=51.18mil|CornerRadius=4.92mil|HoleSize=0mil|Usage=FLASHONLY|Rotation=0.000|XOffset=0mil|YOffset=0mil|HoleType=Round|Shape=RoundedRectangle|*
%AMROUNDEDRECTD28*
21,1,0.01968,0.04134,0,0,0.0*
21,1,0.00984,0.05118,0,0,0.0*
1,1,0.00984,0.00492,-0.02067*
1,1,0.00984,-0.00492,-0.02067*
1,1,0.00984,-0.00492,0.02067*
1,1,0.00984,0.00492,0.02067*
%
%ADD28ROUNDEDRECTD28*%
G04:AMPARAMS|DCode=29|XSize=19.68mil|YSize=51.18mil|CornerRadius=4.92mil|HoleSize=0mil|Usage=FLASHONLY|Rotation=270.000|XOffset=0mil|YOffset=0mil|HoleType=Round|Shape=RoundedRectangle|*
%AMROUNDEDRECTD29*
21,1,0.01968,0.04134,0,0,270.0*
21,1,0.00984,0.05118,0,0,270.0*
1,1,0.00984,-0.02067,-0.00492*
1,1,0.00984,-0.02067,0.00492*
1,1,0.00984,0.02067,0.00492*
1,1,0.00984,0.02067,-0.00492*
%
%ADD29ROUNDEDRECTD29*%
G04:AMPARAMS|DCode=30|XSize=129.92mil|YSize=94.49mil|CornerRadius=9.45mil|HoleSize=0mil|Usage=FLASHONLY|Rotation=0.000|XOffset=0mil|YOffset=0mil|HoleType=Round|Shape=RoundedRectangle|*
%AMROUNDEDRECTD30*
21,1,0.12992,0.07559,0,0,0.0*
21,1,0.11102,0.09449,0,0,0.0*
1,1,0.01890,0.05551,-0.03780*
1,1,0.01890,-0.05551,-0.03780*
1,1,0.01890,-0.05551,0.03780*
1,1,0.01890,0.05551,0.03780*
%
%ADD30ROUNDEDRECTD30*%
G04:AMPARAMS|DCode=31|XSize=37.4mil|YSize=86.61mil|CornerRadius=3.74mil|HoleSize=0mil|Usage=FLASHONLY|Rotation=0.000|XOffset=0mil|YOffset=0mil|HoleType=Round|Shape=RoundedRectangle|*
%AMROUNDEDRECTD31*
21,1,0.03740,0.07913,0,0,0.0*
21,1,0.02992,0.08661,0,0,0.0*
1,1,0.00748,0.01496,-0.03957*
1,1,0.00748,-0.01496,-0.03957*
1,1,0.00748,-0.01496,0.03957*
1,1,0.00748,0.01496,0.03957*
%
%ADD31ROUNDEDRECTD31*%
G04:AMPARAMS|DCode=32|XSize=49.21mil|YSize=27.56mil|CornerRadius=2.76mil|HoleSize=0mil|Usage=FLASHONLY|Rotation=0.000|XOffset=0mil|YOffset=0mil|HoleType=Round|Shape=RoundedRectangle|*
%AMROUNDEDRECTD32*
21,1,0.04921,0.02205,0,0,0.0*
21,1,0.04370,0.02756,0,0,0.0*
1,1,0.00551,0.02185,-0.01102*
1,1,0.00551,-0.02185,-0.01102*
1,1,0.00551,-0.02185,0.01102*
1,1,0.00551,0.02185,0.01102*
%
%ADD32ROUNDEDRECTD32*%
G04:AMPARAMS|DCode=33|XSize=66.93mil|YSize=47.24mil|CornerRadius=4.72mil|HoleSize=0mil|Usage=FLASHONLY|Rotation=90.000|XOffset=0mil|YOffset=0mil|HoleType=Round|Shape=RoundedRectangle|*
%AMROUNDEDRECTD33*
21,1,0.06693,0.03780,0,0,90.0*
21,1,0.05748,0.04724,0,0,90.0*
1,1,0.00945,0.01890,0.02874*
1,1,0.00945,0.01890,-0.02874*
1,1,0.00945,-0.01890,-0.02874*
1,1,0.00945,-0.01890,0.02874*
%
%ADD33ROUNDEDRECTD33*%
G04:AMPARAMS|DCode=34|XSize=43.31mil|YSize=31.5mil|CornerRadius=4.72mil|HoleSize=0mil|Usage=FLASHONLY|Rotation=180.000|XOffset=0mil|YOffset=0mil|HoleType=Round|Shape=RoundedRectangle|*
%AMROUNDEDRECTD34*
21,1,0.04331,0.02205,0,0,180.0*
21,1,0.03386,0.03150,0,0,180.0*
1,1,0.00945,-0.01693,0.01102*
1,1,0.00945,0.01693,0.01102*
1,1,0.00945,0.01693,-0.01102*
1,1,0.00945,-0.01693,-0.01102*
%
%ADD34ROUNDEDRECTD34*%
G04:AMPARAMS|DCode=35|XSize=55.12mil|YSize=31.5mil|CornerRadius=3.15mil|HoleSize=0mil|Usage=FLASHONLY|Rotation=315.000|XOffset=0mil|YOffset=0mil|HoleType=Round|Shape=RoundedRectangle|*
%AMROUNDEDRECTD35*
21,1,0.05512,0.02520,0,0,315.0*
21,1,0.04882,0.03150,0,0,315.0*
1,1,0.00630,0.00835,-0.02617*
1,1,0.00630,-0.02617,0.00835*
1,1,0.00630,-0.00835,0.02617*
1,1,0.00630,0.02617,-0.00835*
%
%ADD35ROUNDEDRECTD35*%
G04:AMPARAMS|DCode=36|XSize=74.8mil|YSize=98.42mil|CornerRadius=11.22mil|HoleSize=0mil|Usage=FLASHONLY|Rotation=180.000|XOffset=0mil|YOffset=0mil|HoleType=Round|Shape=RoundedRectangle|*
%AMROUNDEDRECTD36*
21,1,0.07480,0.07598,0,0,180.0*
21,1,0.05236,0.09842,0,0,180.0*
1,1,0.02244,-0.02618,0.03799*
1,1,0.02244,0.02618,0.03799*
1,1,0.02244,0.02618,-0.03799*
1,1,0.02244,-0.02618,-0.03799*
%
%ADD36ROUNDEDRECTD36*%
G04:AMPARAMS|DCode=37|XSize=90.55mil|YSize=64.96mil|CornerRadius=9.74mil|HoleSize=0mil|Usage=FLASHONLY|Rotation=180.000|XOffset=0mil|YOffset=0mil|HoleType=Round|Shape=RoundedRectangle|*
%AMROUNDEDRECTD37*
21,1,0.09055,0.04547,0,0,180.0*
21,1,0.07106,0.06496,0,0,180.0*
1,1,0.01949,-0.03553,0.02274*
1,1,0.01949,0.03553,0.02274*
1,1,0.01949,0.03553,-0.02274*
1,1,0.01949,-0.03553,-0.02274*
%
%ADD37ROUNDEDRECTD37*%
G04:AMPARAMS|DCode=38|XSize=11.02mil|YSize=43.31mil|CornerRadius=1.65mil|HoleSize=0mil|Usage=FLASHONLY|Rotation=180.000|XOffset=0mil|YOffset=0mil|HoleType=Round|Shape=RoundedRectangle|*
%AMROUNDEDRECTD38*
21,1,0.01102,0.04000,0,0,180.0*
21,1,0.00772,0.04331,0,0,180.0*
1,1,0.00331,-0.00386,0.02000*
1,1,0.00331,0.00386,0.02000*
1,1,0.00331,0.00386,-0.02000*
1,1,0.00331,-0.00386,-0.02000*
%
%ADD38ROUNDEDRECTD38*%
%ADD39C,0.01181*%
%ADD40C,0.00984*%
%ADD41C,0.01575*%
%ADD42C,0.01024*%
G04:AMPARAMS|DCode=43|XSize=232.28mil|YSize=232.28mil|CornerRadius=11.61mil|HoleSize=0mil|Usage=FLASHONLY|Rotation=270.000|XOffset=0mil|YOffset=0mil|HoleType=Round|Shape=RoundedRectangle|*
%AMROUNDEDRECTD43*
21,1,0.23228,0.20906,0,0,270.0*
21,1,0.20906,0.23228,0,0,270.0*
1,1,0.02323,-0.10453,-0.10453*
1,1,0.02323,-0.10453,0.10453*
1,1,0.02323,0.10453,0.10453*
1,1,0.02323,0.10453,-0.10453*
%
%ADD43ROUNDEDRECTD43*%
%ADD44C,0.02756*%
G36*
X219480Y131480D02*
X216000Y128000D01*
X192000Y128000D01*
X188480Y131520D01*
X188480Y183382D01*
X219480D01*
X219480Y131480D01*
D02*
G37*
G36*
X166000Y210000D02*
X166000Y129000D01*
X163915D01*
X163809Y129087D01*
X162621Y129722D01*
X161331Y130114D01*
X159990Y130246D01*
X158120D01*
X156779Y130114D01*
X155490Y129722D01*
X154301Y129087D01*
X154195Y129000D01*
X145805D01*
X145699Y129087D01*
X144510Y129722D01*
X143221Y130114D01*
X141880Y130246D01*
X140010D01*
X138669Y130114D01*
X137379Y129722D01*
X136191Y129087D01*
X136085Y129000D01*
X135192D01*
Y139236D01*
X135069Y140490D01*
X134703Y141696D01*
X134109Y142808D01*
X133309Y143782D01*
X127000Y150091D01*
Y152000D01*
X99000Y180000D01*
Y185777D01*
X99406Y186068D01*
X101142Y185479D01*
X103699Y184970D01*
X106299Y184800D01*
X108900Y184970D01*
X111456Y185479D01*
X113924Y186317D01*
X116261Y187469D01*
X118429Y188917D01*
X120388Y190636D01*
X122106Y192595D01*
X123554Y194762D01*
X124707Y197100D01*
X125545Y199568D01*
X126053Y202124D01*
X126224Y204724D01*
X126053Y207325D01*
X125621Y209500D01*
X126021Y210000D01*
X166000Y210000D01*
D02*
G37*
D10*
X140945Y119583D02*
D03*
X150000D02*
D03*
X159055D02*
D03*
D11*
X150000Y142417D02*
D03*
D12*
X74000Y30953D02*
D03*
Y25047D02*
D03*
X68000Y30953D02*
D03*
Y25047D02*
D03*
X74000Y40953D02*
D03*
Y35047D02*
D03*
X68000Y40953D02*
D03*
Y35047D02*
D03*
X74000Y20953D02*
D03*
Y15047D02*
D03*
X68000Y20953D02*
D03*
Y15047D02*
D03*
X74000Y50953D02*
D03*
Y45047D02*
D03*
X68000Y50953D02*
D03*
Y45047D02*
D03*
X74000Y60953D02*
D03*
Y55047D02*
D03*
X68000Y60953D02*
D03*
Y55047D02*
D03*
X74000Y70953D02*
D03*
Y65047D02*
D03*
X68000Y70953D02*
D03*
Y65047D02*
D03*
X74000Y80953D02*
D03*
Y75047D02*
D03*
X68000Y80953D02*
D03*
Y75047D02*
D03*
X74000Y90953D02*
D03*
Y85047D02*
D03*
X68000Y90953D02*
D03*
Y85047D02*
D03*
X74000Y100953D02*
D03*
Y95047D02*
D03*
X68000Y100953D02*
D03*
Y95047D02*
D03*
X74000Y110953D02*
D03*
Y105047D02*
D03*
X68000Y110953D02*
D03*
Y105047D02*
D03*
X143000Y98953D02*
D03*
Y93047D02*
D03*
X74000Y120953D02*
D03*
Y115047D02*
D03*
X68000Y120953D02*
D03*
Y115047D02*
D03*
X74000Y130953D02*
D03*
Y125047D02*
D03*
X68000Y130953D02*
D03*
Y125047D02*
D03*
X74000Y140953D02*
D03*
Y135047D02*
D03*
X203000Y72047D02*
D03*
Y77953D02*
D03*
X68000Y140953D02*
D03*
Y135047D02*
D03*
X74000Y150953D02*
D03*
Y145047D02*
D03*
X68000Y150953D02*
D03*
Y145047D02*
D03*
X74000Y160953D02*
D03*
Y155047D02*
D03*
X68000Y160953D02*
D03*
Y155047D02*
D03*
X74000Y170953D02*
D03*
Y165047D02*
D03*
X68000Y170953D02*
D03*
Y165047D02*
D03*
X74000Y180953D02*
D03*
Y175047D02*
D03*
X68000Y180953D02*
D03*
Y175047D02*
D03*
X74000Y190953D02*
D03*
Y185047D02*
D03*
X68000Y190953D02*
D03*
Y185047D02*
D03*
Y195047D02*
D03*
Y200953D02*
D03*
X74000Y195047D02*
D03*
Y200953D02*
D03*
X156000Y91953D02*
D03*
Y86047D02*
D03*
X150000Y88779D02*
D03*
Y82874D02*
D03*
X174000Y78047D02*
D03*
Y83953D02*
D03*
X179000Y75047D02*
D03*
Y80953D02*
D03*
X181000Y94047D02*
D03*
Y99953D02*
D03*
X186000D02*
D03*
Y94047D02*
D03*
D13*
X153000Y60457D02*
D03*
Y67543D02*
D03*
X146000Y60457D02*
D03*
Y67543D02*
D03*
X227000Y152543D02*
D03*
Y145457D02*
D03*
X259000Y111543D02*
D03*
Y104457D02*
D03*
X214000Y100543D02*
D03*
Y93457D02*
D03*
X231043Y40425D02*
D03*
Y33339D02*
D03*
X172980Y34425D02*
D03*
Y27339D02*
D03*
X165980Y34425D02*
D03*
Y27339D02*
D03*
X213000Y67457D02*
D03*
Y74543D02*
D03*
X198000Y95457D02*
D03*
Y102543D02*
D03*
D14*
X62854Y26000D02*
D03*
X57146D02*
D03*
X62854Y36000D02*
D03*
X57146D02*
D03*
X62854Y46000D02*
D03*
X57146D02*
D03*
X62854Y16000D02*
D03*
X57146D02*
D03*
X62854Y56000D02*
D03*
X57146D02*
D03*
X62854Y66000D02*
D03*
X57146D02*
D03*
X62854Y76000D02*
D03*
X57146D02*
D03*
X62854Y86000D02*
D03*
X57146D02*
D03*
X62854Y96000D02*
D03*
X57146D02*
D03*
X62854Y106000D02*
D03*
X57146D02*
D03*
X62854Y116000D02*
D03*
X57146D02*
D03*
X62854Y126000D02*
D03*
X57146D02*
D03*
X62854Y136000D02*
D03*
X57146D02*
D03*
X62854Y146000D02*
D03*
X57146D02*
D03*
X62854Y156000D02*
D03*
X57146D02*
D03*
X62854Y166000D02*
D03*
X57146D02*
D03*
X62854Y176000D02*
D03*
X57146D02*
D03*
X62854Y186000D02*
D03*
X57146D02*
D03*
X229854Y47000D02*
D03*
X224146D02*
D03*
X167854Y81000D02*
D03*
X162146D02*
D03*
X167854Y86000D02*
D03*
X162146D02*
D03*
D15*
X34055Y37697D02*
D03*
Y45571D02*
D03*
Y53445D02*
D03*
Y61319D02*
D03*
Y69193D02*
D03*
Y77067D02*
D03*
Y84941D02*
D03*
Y92815D02*
D03*
Y29823D02*
D03*
Y21949D02*
D03*
X34075Y145315D02*
D03*
Y153189D02*
D03*
Y161063D02*
D03*
Y168937D02*
D03*
Y176811D02*
D03*
Y184685D02*
D03*
Y192559D02*
D03*
Y200433D02*
D03*
Y137441D02*
D03*
Y129567D02*
D03*
X258425Y160811D02*
D03*
Y152937D02*
D03*
Y145063D02*
D03*
Y137189D02*
D03*
D16*
X12480Y11319D02*
D03*
Y103445D02*
D03*
X12500Y118937D02*
D03*
Y211063D02*
D03*
X280000Y170850D02*
D03*
Y127150D02*
D03*
D17*
X136441Y89764D02*
D03*
Y87795D02*
D03*
Y85827D02*
D03*
Y83858D02*
D03*
Y81890D02*
D03*
Y79921D02*
D03*
Y77953D02*
D03*
Y75984D02*
D03*
Y74016D02*
D03*
Y72047D02*
D03*
Y70079D02*
D03*
Y68110D02*
D03*
Y66142D02*
D03*
Y64173D02*
D03*
Y62205D02*
D03*
Y60236D02*
D03*
X91559D02*
D03*
Y62205D02*
D03*
Y64173D02*
D03*
Y66142D02*
D03*
Y68110D02*
D03*
Y70079D02*
D03*
Y72047D02*
D03*
Y74016D02*
D03*
Y75984D02*
D03*
Y77953D02*
D03*
Y79921D02*
D03*
Y81890D02*
D03*
Y83858D02*
D03*
Y85827D02*
D03*
Y87795D02*
D03*
Y89764D02*
D03*
D18*
X128764Y52559D02*
D03*
X126795D02*
D03*
X124827D02*
D03*
X122858D02*
D03*
X120890D02*
D03*
X118921D02*
D03*
X116953D02*
D03*
X114984D02*
D03*
X113016D02*
D03*
X111047D02*
D03*
X109079D02*
D03*
X107110D02*
D03*
X105142D02*
D03*
X103173D02*
D03*
X101205D02*
D03*
X99236D02*
D03*
Y97441D02*
D03*
X101205D02*
D03*
X103173D02*
D03*
X105142D02*
D03*
X107110D02*
D03*
X109079D02*
D03*
X111047D02*
D03*
X113016D02*
D03*
X114984D02*
D03*
X116953D02*
D03*
X118921D02*
D03*
X120890D02*
D03*
X122858D02*
D03*
X124827D02*
D03*
X126795D02*
D03*
X128764D02*
D03*
D19*
X67047Y10000D02*
D03*
X72953D02*
D03*
X160953Y75000D02*
D03*
X155047D02*
D03*
X150953D02*
D03*
X145047D02*
D03*
D20*
X246740Y48000D02*
D03*
X239260D02*
D03*
X231783Y27882D02*
D03*
X224303D02*
D03*
X246740Y40000D02*
D03*
X239260D02*
D03*
X232740Y165000D02*
D03*
X225260D02*
D03*
X204740Y202000D02*
D03*
X197260D02*
D03*
X215740D02*
D03*
X208260D02*
D03*
D21*
X156457Y102000D02*
D03*
X163543D02*
D03*
X236543Y195000D02*
D03*
X229457D02*
D03*
X232543Y172000D02*
D03*
X225457D02*
D03*
D22*
X62000Y201146D02*
D03*
Y206854D02*
D03*
X80000Y201146D02*
D03*
Y206854D02*
D03*
X225043Y35028D02*
D03*
Y40736D02*
D03*
X172543Y47028D02*
D03*
Y52736D02*
D03*
D23*
X246094Y195000D02*
D03*
X257906D02*
D03*
D24*
X227437Y75922D02*
D03*
Y70922D02*
D03*
Y65922D02*
D03*
X243972Y75922D02*
D03*
Y70922D02*
D03*
Y65922D02*
D03*
X227437Y60922D02*
D03*
X243972D02*
D03*
X227437Y55922D02*
D03*
D25*
X243972D02*
D03*
D26*
X170311Y17882D02*
D03*
X161650D02*
D03*
D27*
X221437Y94476D02*
D03*
X226437D02*
D03*
X231437D02*
D03*
X236437D02*
D03*
X241437D02*
D03*
X246437D02*
D03*
X251437D02*
D03*
X221437Y116524D02*
D03*
X226437D02*
D03*
X231437D02*
D03*
X236437D02*
D03*
X241437D02*
D03*
X246437D02*
D03*
X251437D02*
D03*
D28*
X208567Y57205D02*
D03*
X205417D02*
D03*
X202268D02*
D03*
X199118D02*
D03*
X195968D02*
D03*
X192819D02*
D03*
X189669D02*
D03*
X186520D02*
D03*
Y22559D02*
D03*
X189669D02*
D03*
X192819D02*
D03*
X195968D02*
D03*
X199118D02*
D03*
X202268D02*
D03*
X205417D02*
D03*
X208567D02*
D03*
D29*
X180220Y50906D02*
D03*
Y47756D02*
D03*
Y44606D02*
D03*
Y41457D02*
D03*
Y38307D02*
D03*
Y35157D02*
D03*
Y32008D02*
D03*
Y28858D02*
D03*
X214866D02*
D03*
Y32008D02*
D03*
Y35157D02*
D03*
Y38307D02*
D03*
Y41457D02*
D03*
Y44606D02*
D03*
Y47756D02*
D03*
Y50906D02*
D03*
D30*
X203850Y167740D02*
D03*
D31*
X194795Y192150D02*
D03*
X203850D02*
D03*
X212906D02*
D03*
D32*
X245000Y179260D02*
D03*
Y186740D02*
D03*
X235000Y186740D02*
D03*
Y179260D02*
D03*
X227000Y186740D02*
D03*
Y179260D02*
D03*
D33*
X245905Y143000D02*
D03*
X234095D02*
D03*
X245905Y153000D02*
D03*
X234095D02*
D03*
D34*
X246299Y132756D02*
D03*
X233701D02*
D03*
Y127244D02*
D03*
X246299D02*
D03*
D35*
X244784Y30784D02*
D03*
X239216Y25216D02*
D03*
D36*
X254126Y183000D02*
D03*
X269874D02*
D03*
D37*
X185000Y188996D02*
D03*
Y201004D02*
D03*
D38*
X197890Y87858D02*
D03*
X195921D02*
D03*
X193953D02*
D03*
X191984D02*
D03*
X190016D02*
D03*
X188047D02*
D03*
X186079D02*
D03*
X184110D02*
D03*
X197890Y70142D02*
D03*
X195921D02*
D03*
X193953D02*
D03*
X191984D02*
D03*
X190016D02*
D03*
X188047D02*
D03*
X186079D02*
D03*
X184110D02*
D03*
D39*
X260000Y30000D02*
Y81000D01*
X244000Y14000D02*
X260000Y30000D01*
X205000Y14000D02*
X244000D01*
X258000Y31000D02*
Y80000D01*
X243000Y16000D02*
X258000Y31000D01*
X206000Y16000D02*
X243000D01*
X256000Y32000D02*
Y79000D01*
X242000Y18000D02*
X256000Y32000D01*
X210000Y18000D02*
X242000D01*
X254000Y33000D02*
Y78000D01*
X241000Y20000D02*
X254000Y33000D01*
X216065Y20000D02*
X241000D01*
X209756Y26309D02*
X216065Y20000D01*
X199118Y19882D02*
X205000Y14000D01*
X202268Y19732D02*
X206000Y16000D01*
X208567Y19433D02*
X210000Y18000D01*
X216142Y28858D02*
X221000Y24000D01*
X214866Y28858D02*
X216142D01*
X221000Y24000D02*
X238000D01*
X239216Y25216D01*
X244784Y30784D02*
X246740Y32740D01*
Y40000D01*
X209000Y88000D02*
Y105543D01*
X216000Y113000D02*
Y122000D01*
X242054Y36053D02*
Y43313D01*
X233882Y27882D02*
X242054Y36053D01*
X231783Y27882D02*
X233882D01*
X242054Y43313D02*
X242975Y44235D01*
X246740Y48000D01*
X231043Y33339D02*
X231339D01*
X235000Y37000D01*
X238000Y40000D01*
X239260D01*
X229854Y47000D02*
X234000D01*
X224146D02*
X226911Y44235D01*
X242975D01*
X221752Y44606D02*
X224146Y47000D01*
X214866Y44606D02*
X221752D01*
X205417Y25417D02*
X206309Y26309D01*
X209756D01*
X205417Y22559D02*
Y25417D01*
X213000Y84000D02*
X218000Y79000D01*
X209000Y88000D02*
X213000Y84000D01*
Y74543D02*
Y84000D01*
Y64000D02*
Y67457D01*
X209000Y71000D02*
X212543Y74543D01*
X213000D01*
X203000Y99000D02*
Y111543D01*
X206000Y69000D02*
Y103000D01*
Y69000D02*
X208567Y66433D01*
Y57205D02*
Y66433D01*
X204740Y202000D02*
X208260D01*
X203850Y192150D02*
Y201110D01*
X204740Y202000D01*
X185000Y188996D02*
X188154Y192150D01*
X194795D01*
X185000Y201004D02*
X185996Y202000D01*
X193000D01*
X197260D01*
X231437Y94476D02*
Y96563D01*
X227457Y100543D02*
X231437Y96563D01*
X214000Y100543D02*
X227457D01*
X241437Y94476D02*
Y96563D01*
X237457Y100543D02*
X241437Y96563D01*
X227457Y100543D02*
X237457D01*
X256000Y134764D02*
X258425Y137189D01*
X256000Y133000D02*
Y134764D01*
X258425Y137189D02*
X259000Y136614D01*
Y133000D02*
Y136614D01*
X227000Y142000D02*
Y145457D01*
X246740Y48000D02*
X249000D01*
X252000Y51000D01*
Y77000D01*
X250000Y79000D02*
X252000Y77000D01*
X218000Y79000D02*
X250000D01*
X254000Y87000D02*
X260000Y81000D01*
X248000Y87000D02*
X254000D01*
X251000Y81000D02*
X254000Y78000D01*
X230000Y81000D02*
X251000D01*
X252000Y83000D02*
X256000Y79000D01*
X245000Y83000D02*
X252000D01*
X221437Y89563D02*
X230000Y81000D01*
X236437Y91563D02*
X245000Y83000D01*
X253000Y85000D02*
X258000Y80000D01*
X247000Y85000D02*
X253000D01*
X244000Y88000D02*
X247000Y85000D01*
X246437Y88563D02*
X248000Y87000D01*
X188047Y87858D02*
X190016D01*
X190000Y98000D02*
X190016Y97984D01*
Y87858D02*
Y97984D01*
X199457Y95457D02*
X203000Y99000D01*
X198000Y95457D02*
X199457D01*
X214866Y50906D02*
X217067D01*
X222083Y55922D01*
X214866Y47756D02*
X218917D01*
X223043Y51882D01*
X234705D01*
X235705Y52882D01*
Y59882D01*
X234665Y60922D02*
X235705Y59882D01*
X227437Y60922D02*
X234665D01*
X211917Y32008D02*
X214866D01*
X210043Y33882D02*
X211917Y32008D01*
X210043Y33882D02*
Y51882D01*
X217705Y59543D01*
Y63882D02*
Y73882D01*
X219745Y75922D02*
X227437D01*
X217705Y73882D02*
X219745Y75922D01*
X214866Y41457D02*
X224323D01*
X225043Y40736D01*
X230732D01*
X231043Y40425D01*
X225043Y35028D02*
X229354D01*
X231043Y33339D01*
X214866Y32008D02*
X220177D01*
X224303Y27882D01*
X214866Y38307D02*
X219618D01*
X220043Y37882D01*
X238745Y75922D02*
X243972D01*
X235705Y72882D02*
X238745Y75922D01*
X238665Y60922D02*
X243972D01*
X235705Y63882D02*
X238665Y60922D01*
X238165Y65922D02*
X243972D01*
X235705Y68382D02*
X238165Y65922D01*
X235705Y68382D02*
Y72882D01*
Y63882D02*
Y68382D01*
X203850Y187075D02*
Y192150D01*
Y187075D02*
X204480Y186445D01*
X174500Y28858D02*
X180220D01*
X172980Y27339D02*
X174500Y28858D01*
X177106Y32008D02*
X180220D01*
X175980Y30882D02*
X177106Y32008D01*
X169524Y30882D02*
X175980D01*
X165980Y27339D02*
X169524Y30882D01*
X174374Y50906D02*
X180220D01*
X172543Y52736D02*
X174374Y50906D01*
X170311Y17882D02*
Y24669D01*
X172980Y27339D01*
X161650Y17882D02*
Y23008D01*
X165980Y27339D01*
X172543Y47028D02*
X173272Y47756D01*
X174980Y43882D02*
Y45756D01*
X176980Y47756D01*
X173272D02*
X176980D01*
X180220D01*
X172980Y34425D02*
X174980Y36425D01*
Y43882D01*
X165980Y34425D02*
X172980D01*
X217705Y59543D02*
Y63882D01*
X235378Y51882D02*
X239260Y48000D01*
X234705Y51882D02*
X235378D01*
X246740Y48000D02*
Y53154D01*
X243972Y55922D02*
X246740Y53154D01*
X184110Y70142D02*
Y74110D01*
X187000Y77000D01*
X197890Y87858D02*
Y95346D01*
X191984Y87858D02*
Y92984D01*
X194346Y95346D01*
X197890D01*
X203000Y77953D02*
Y90457D01*
X198000Y95457D02*
X203000Y90457D01*
X193953Y66047D02*
Y70142D01*
Y66047D02*
X195000Y65000D01*
X197890Y67110D02*
Y70142D01*
X195921Y69079D02*
Y70142D01*
Y69079D02*
X197890Y67110D01*
X180953Y77000D02*
X187000D01*
X172543Y52736D02*
X179000Y59193D01*
Y75047D02*
X180953Y77000D01*
X179000Y59193D02*
Y75047D01*
X174000Y78047D02*
X176000D01*
X179000Y75047D01*
X187000Y77000D02*
X193000D01*
X197890Y81890D01*
Y87858D01*
X184110D02*
Y90937D01*
X181000Y94047D02*
X184110Y90937D01*
X186079Y87858D02*
Y93968D01*
X186000Y94047D02*
X186079Y93968D01*
X181000Y99953D02*
X186000Y94953D01*
Y94047D02*
Y94953D01*
X208567Y19433D02*
Y22559D01*
X202268Y19732D02*
Y22559D01*
X199118Y19882D02*
Y22559D01*
X221437Y109563D02*
Y116524D01*
X246437Y88563D02*
Y94476D01*
X221437Y89563D02*
Y94476D01*
X236437Y91563D02*
Y94476D01*
X230819Y132819D02*
X234201D01*
X226437Y116524D02*
Y128437D01*
X233307Y127307D02*
X234201D01*
X231437Y116524D02*
Y125437D01*
X244000Y88000D02*
Y99000D01*
X221437Y109563D02*
X228000Y103000D01*
X240000D01*
X244000Y99000D01*
X246437Y112563D02*
Y116524D01*
Y112563D02*
X247457Y111543D01*
X259000D01*
X241437Y112563D02*
Y116524D01*
Y112563D02*
X242457Y111543D01*
X247457D01*
X259000D02*
Y120000D01*
X242353Y149447D02*
X245905Y153000D01*
X245969Y152937D02*
X258425D01*
X245905Y153000D02*
X245969Y152937D01*
X247969Y145063D02*
X258425D01*
X245905Y143000D02*
X247969Y145063D01*
X231437Y125437D02*
X233307Y127307D01*
X226437Y128437D02*
X230819Y132819D01*
X242353Y130647D02*
Y149447D01*
Y130647D02*
X245693Y127307D01*
X246799D01*
X245905Y133713D02*
X246799Y132819D01*
X245905Y133713D02*
Y143000D01*
X232543Y175803D02*
X236000Y179260D01*
X232543Y172000D02*
Y175803D01*
Y165197D02*
Y172000D01*
Y165197D02*
X232740Y165000D01*
X227000Y152543D02*
X233638D01*
X234095Y153000D01*
Y143000D02*
Y153000D01*
X232740Y161740D02*
Y165000D01*
X228000Y157000D02*
X232740Y161740D01*
X224000Y157000D02*
X228000D01*
X222000Y155000D02*
X224000Y157000D01*
X222000Y128000D02*
Y155000D01*
X216000Y122000D02*
X222000Y128000D01*
X204480Y186445D02*
X226705D01*
X227000Y186740D01*
X274752Y56198D02*
X273703Y55149D01*
Y53049D01*
X274752Y52000D01*
X278951D01*
X280000Y53049D01*
Y55149D01*
X278951Y56198D01*
X274752Y62495D02*
X273703Y61446D01*
Y59347D01*
X274752Y58297D01*
X275802D01*
X276851Y59347D01*
Y61446D01*
X277901Y62495D01*
X278951D01*
X280000Y61446D01*
Y59347D01*
X278951Y58297D01*
X274752Y70891D02*
X273703Y71941D01*
Y74040D01*
X274752Y75090D01*
X278951D01*
X280000Y74040D01*
Y71941D01*
X278951Y70891D01*
X274752D01*
X280000Y77189D02*
Y79288D01*
Y78238D01*
X273703D01*
X274752Y77189D01*
X276851Y82436D02*
Y86634D01*
X274752Y88734D02*
X273703Y89783D01*
Y91882D01*
X274752Y92932D01*
X278951D01*
X280000Y91882D01*
Y89783D01*
X278951Y88734D01*
X274752D01*
X280000Y95031D02*
Y97130D01*
Y96080D01*
X273703D01*
X274752Y95031D01*
D40*
X79000Y13000D02*
Y15000D01*
X76000Y10000D02*
X79000Y13000D01*
X72953Y10000D02*
X76000D01*
X109079Y45079D02*
Y52559D01*
X79000Y15000D02*
X109079Y45079D01*
X107110Y46110D02*
Y52559D01*
X76047Y15047D02*
X107110Y46110D01*
X74000Y15047D02*
X76047D01*
X105142Y47142D02*
Y52559D01*
X76000Y18000D02*
X105142Y47142D01*
X70953Y18000D02*
X76000D01*
X103173Y48173D02*
Y52559D01*
X80047Y25047D02*
X103173Y48173D01*
X74000Y25047D02*
X80047D01*
X101205Y49205D02*
Y52559D01*
X80000Y28000D02*
X101205Y49205D01*
X70953Y28000D02*
X80000D01*
X99236Y50236D02*
Y52559D01*
X84047Y35047D02*
X99236Y50236D01*
X74000Y35047D02*
X84047D01*
X171953Y86000D02*
X174000Y83953D01*
X167854Y86000D02*
X171953D01*
X167854Y81000D02*
X193000D01*
X78000Y190000D02*
X128764Y139236D01*
Y97441D02*
Y139236D01*
X76000Y188000D02*
X126795Y137205D01*
Y97441D02*
Y137205D01*
X74166Y185047D02*
X124827Y134386D01*
Y97441D02*
Y134386D01*
X76000Y178000D02*
X122858Y131142D01*
Y97441D02*
Y131142D01*
X74953Y175047D02*
X120890Y129110D01*
Y97441D02*
Y129110D01*
X76000Y168000D02*
X118921Y125079D01*
Y97441D02*
Y125079D01*
X74953Y165047D02*
X116953Y123047D01*
Y97441D02*
Y123047D01*
X76000Y158000D02*
X114984Y119016D01*
Y97441D02*
Y119016D01*
X74953Y155047D02*
X113016Y116984D01*
Y97441D02*
Y116984D01*
X76000Y148000D02*
X111047Y112953D01*
Y97441D02*
Y112953D01*
X74953Y145047D02*
X109079Y110921D01*
Y97441D02*
Y110921D01*
X76000Y138000D02*
X107110Y106890D01*
Y97441D02*
Y106890D01*
X74953Y135047D02*
X105142Y104858D01*
Y97441D02*
Y104858D01*
X78000Y128000D02*
X103173Y102827D01*
Y97441D02*
Y102827D01*
X81000Y118000D02*
X99236Y99764D01*
X70953Y118000D02*
X81000D01*
X101205Y97441D02*
Y100795D01*
X76953Y125047D02*
X101205Y100795D01*
X99236Y97441D02*
Y99764D01*
X89236Y89764D02*
X91559D01*
X87000Y92000D02*
X89236Y89764D01*
X88205Y87795D02*
X90559D01*
X84000Y92000D02*
X88205Y87795D01*
X84000Y92000D02*
Y100000D01*
X87173Y85827D02*
X90559D01*
X82000Y91000D02*
X87173Y85827D01*
X82000Y91000D02*
Y98000D01*
X86142Y83858D02*
X90559D01*
X80000Y90000D02*
X86142Y83858D01*
X80000Y90000D02*
Y94000D01*
X78000Y89000D02*
Y90000D01*
X85110Y81890D02*
X90559D01*
X78000Y89000D02*
X85110Y81890D01*
X77000Y87000D02*
X84079Y79921D01*
X78000Y90000D02*
Y93000D01*
X76000Y88000D02*
X77000Y87000D01*
X84079Y79921D02*
X90559D01*
X87000Y92000D02*
Y103000D01*
X70953Y88000D02*
X76000D01*
Y98000D02*
X80000Y94000D01*
X82047Y77953D02*
X90559D01*
X74953Y85047D02*
X82047Y77953D01*
X80016Y75984D02*
X90559D01*
X78000Y78000D02*
X80016Y75984D01*
X78984Y74016D02*
X90559D01*
X77953Y75047D02*
X78984Y74016D01*
X87236Y60236D02*
X90559D01*
X86000Y59000D02*
X87236Y60236D01*
X86000Y48000D02*
Y59000D01*
X84000Y60000D02*
X86205Y62205D01*
X84000Y52000D02*
Y60000D01*
X77047Y45047D02*
X84000Y52000D01*
X70953Y48000D02*
X77000D01*
X82000Y53000D02*
Y61000D01*
X77000Y48000D02*
X82000Y53000D01*
X86205Y62205D02*
X90559D01*
X85173Y64173D02*
X90559D01*
X82000Y61000D02*
X85173Y64173D01*
X74000Y55047D02*
X76047D01*
X79584Y58584D02*
Y61584D01*
X76047Y55047D02*
X79584Y58584D01*
X84142Y66142D02*
X90559D01*
X79584Y61584D02*
X84142Y66142D01*
X78000Y63000D02*
X83110Y68110D01*
X78000Y60692D02*
Y63000D01*
X75308Y58000D02*
X78000Y60692D01*
X70953Y58000D02*
X75308D01*
X83110Y68110D02*
X90559D01*
X81079Y70079D02*
X90559D01*
X76000Y65000D02*
X81079Y70079D01*
X75000Y65000D02*
X76000D01*
X80047Y72047D02*
X90559D01*
X76000Y68000D02*
X80047Y72047D01*
X70953Y68000D02*
X76000D01*
Y38000D02*
X86000Y48000D01*
X76000Y108000D02*
X84000Y100000D01*
X70953Y108000D02*
X76000D01*
X74953Y105047D02*
X82000Y98000D01*
X74000Y105047D02*
X74953D01*
X75953Y95047D02*
X78000Y93000D01*
X74000Y85047D02*
X74953D01*
X159000Y70000D02*
X160953Y71953D01*
X156543Y67543D02*
X159000Y70000D01*
X190016Y65016D02*
Y70142D01*
X186520Y61520D02*
X190016Y65016D01*
X186520Y57205D02*
Y61520D01*
X153000Y67543D02*
X156543D01*
X160953Y71953D02*
Y75000D01*
X146000Y67543D02*
X153000D01*
X144598Y66142D02*
X146000Y67543D01*
X136441Y66142D02*
X144598D01*
X144252Y62205D02*
X146000Y60457D01*
X136441Y62205D02*
X144252D01*
X149284Y64173D02*
X153000Y60457D01*
X136441Y64173D02*
X149284D01*
X132000Y79921D02*
X136441D01*
X118921D02*
X132000D01*
X133968Y81890D01*
X136441D01*
X122858Y66142D02*
X136441D01*
X131000Y72000D02*
X131047Y72047D01*
X136441D01*
X140235Y96187D02*
X143000Y98953D01*
X140235Y91235D02*
Y96187D01*
X138764Y89764D02*
X140235Y91235D01*
X136441Y89764D02*
X138764D01*
X143000Y89000D02*
Y93047D01*
X141795Y87795D02*
X143000Y89000D01*
X136441Y87795D02*
X141795D01*
X130000Y57000D02*
X132000D01*
X128764Y55764D02*
X130000Y57000D01*
X128764Y52559D02*
Y55764D01*
X195921Y83921D02*
Y87858D01*
X193953Y85047D02*
Y87858D01*
X144063Y75984D02*
X145047Y75000D01*
X136441Y75984D02*
X144063D01*
X150953Y75000D02*
X155047D01*
X148000Y77953D02*
X150953Y75000D01*
X136441Y77953D02*
X148000D01*
X68000Y200000D02*
Y200953D01*
Y200000D02*
X70000Y198000D01*
X76000D01*
X78000Y196000D01*
Y190000D02*
Y196000D01*
X67807Y201146D02*
X68000Y200953D01*
X62000Y201146D02*
X67807D01*
X70953Y168000D02*
X76000D01*
X68000Y165047D02*
X70953Y168000D01*
X67047Y166000D02*
X68000Y165047D01*
X62854Y166000D02*
X67047D01*
X70953Y178000D02*
X76000D01*
X68000Y175047D02*
X70953Y178000D01*
X67047Y176000D02*
X68000Y175047D01*
X62854Y176000D02*
X67047D01*
X70953Y188000D02*
X76000D01*
X68000Y185047D02*
X70953Y188000D01*
X67047Y186000D02*
X68000Y185047D01*
X62854Y186000D02*
X67047D01*
X62854Y106000D02*
X67047D01*
X68000Y105047D01*
X70953Y108000D01*
X62854Y96000D02*
X67047D01*
X68000Y95047D01*
X70953Y98000D01*
X76000D01*
X74000Y95047D02*
X75953D01*
X74953Y115047D02*
X87000Y103000D01*
X74000Y115047D02*
X74953D01*
X62854Y116000D02*
X67047D01*
X68000Y115047D01*
X70953Y118000D01*
X74000Y125047D02*
X76953D01*
X62854Y126000D02*
X67047D01*
X68000Y125047D01*
X70953Y128000D01*
X78000D01*
X74000Y135047D02*
X74953D01*
X62854Y136000D02*
X67047D01*
X68000Y135047D01*
Y85047D02*
X70953Y88000D01*
X62854Y86000D02*
X67047D01*
X68000Y85047D01*
Y75047D02*
X70953Y78000D01*
X62854Y76000D02*
X67047D01*
X68000Y75047D01*
Y65047D02*
X70953Y68000D01*
X62854Y66000D02*
X67047D01*
X68000Y65047D01*
X70953Y78000D02*
X78000D01*
X74000Y75047D02*
X77953D01*
X62854Y56000D02*
X67047D01*
X68000Y55047D01*
X70953Y58000D01*
X74000Y45047D02*
X77047D01*
X68000D02*
X70953Y48000D01*
X62854Y46000D02*
X67047D01*
X68000Y45047D01*
Y35047D02*
X70953Y38000D01*
X76000D01*
X62854Y36000D02*
X67047D01*
X68000Y35047D01*
Y15047D02*
X70953Y18000D01*
X62854Y16000D02*
X67047D01*
X68000Y15047D01*
Y25047D02*
X70953Y28000D01*
X62854Y26000D02*
X67047D01*
X68000Y25047D01*
Y135047D02*
X70953Y138000D01*
X76000D01*
X74000Y145047D02*
X74953D01*
X68000D02*
X70953Y148000D01*
X76000D01*
X62854Y146000D02*
X67047D01*
X68000Y145047D01*
X74000Y155047D02*
X74953D01*
X68000D02*
X70953Y158000D01*
X76000D01*
X62854Y156000D02*
X67047D01*
X68000Y155047D01*
X74000Y165047D02*
X74953D01*
X74000Y175047D02*
X74953D01*
X74000Y185047D02*
X74166D01*
X156000Y91953D02*
Y101543D01*
X156457Y102000D01*
X150000Y88779D02*
X152827D01*
X156000Y91953D01*
X136441Y85827D02*
X155780D01*
X156000Y86047D01*
X136441Y83858D02*
X149016D01*
X150000Y82874D01*
X159055Y104598D02*
Y119583D01*
X156457Y102000D02*
X159055Y104598D01*
X138000Y102000D02*
X156457D01*
X189669Y53669D02*
Y57205D01*
X189000Y53000D02*
X189669Y53669D01*
X185000Y53000D02*
X189000D01*
X184000Y54000D02*
X185000Y53000D01*
X184000Y54000D02*
Y63000D01*
X186079Y65079D02*
Y70142D01*
X184000Y63000D02*
X186079Y65079D01*
X191984Y60016D02*
Y70142D01*
Y60016D02*
X192819Y59181D01*
Y57205D02*
Y59181D01*
X200000Y75047D02*
X203000Y72047D01*
X188047Y70142D02*
Y73047D01*
X190047Y75047D01*
X200000D01*
X195968Y57205D02*
Y58969D01*
X203000Y66000D01*
Y72047D01*
X174953Y84000D02*
X192905D01*
X193953Y85047D01*
X193000Y81000D02*
X195921Y83921D01*
X163543Y97543D02*
Y102000D01*
X163000Y97000D02*
X163543Y97543D01*
X150000Y82874D02*
X160272D01*
X162146Y81000D01*
X156000Y86047D02*
X162098D01*
X162146Y86000D01*
X246000Y122000D02*
X257000D01*
X259000Y120000D01*
X251437Y94476D02*
Y98563D01*
X239584Y128416D02*
X246000Y122000D01*
X239000Y111000D02*
X251437Y98563D01*
X238000Y127000D02*
X239000Y126000D01*
Y111000D02*
Y126000D01*
X238000Y127000D02*
Y175000D01*
X227000Y179260D02*
X230740Y183000D01*
X239584Y128416D02*
Y158584D01*
X245000Y164000D01*
Y179260D01*
X238000Y175000D02*
X240000Y177000D01*
X230740Y183000D02*
X238000D01*
X240000Y181000D01*
Y177000D02*
Y181000D01*
D41*
X136000Y142000D02*
X150000D01*
X80000Y198000D02*
X136000Y142000D01*
X80000Y198000D02*
Y201146D01*
X185000Y129543D02*
Y188000D01*
X212906Y192150D02*
Y199165D01*
X215740Y202000D01*
X209000Y105543D02*
X214000Y100543D01*
X203000Y111543D02*
X209000Y105543D01*
X190000Y98000D02*
X194543Y102543D01*
X198000D01*
X188047Y99953D02*
X190000Y98000D01*
X186000Y99953D02*
X188047D01*
X214000Y90000D02*
Y93457D01*
X226437Y89563D02*
X227000Y89000D01*
X226437Y89563D02*
Y94476D01*
X185000Y129543D02*
X203000Y111543D01*
X215740Y202000D02*
X235000D01*
X182000Y199004D02*
X183996Y201000D01*
X225260Y171803D02*
X225457Y172000D01*
X225260Y165000D02*
Y171803D01*
X213480Y171382D02*
X214098Y172000D01*
X225457D01*
X54000Y86000D02*
X57146D01*
X49047Y20953D02*
X68000D01*
X150000Y119583D02*
Y142417D01*
X45047Y180953D02*
X68000D01*
X41315Y184685D02*
X45047Y180953D01*
X34075Y184685D02*
X41315D01*
X47047Y170953D02*
X68000D01*
X41189Y176811D02*
X47047Y170953D01*
X34075Y176811D02*
X41189D01*
X46953Y90953D02*
X68000D01*
X40941Y84941D02*
X46953Y90953D01*
X34055Y84941D02*
X40941D01*
X46953Y80953D02*
X68000D01*
X43067Y77067D02*
X46953Y80953D01*
X34055Y77067D02*
X43067D01*
X45047Y50953D02*
X68000D01*
X42555Y53445D02*
X45047Y50953D01*
X34055Y53445D02*
X42555D01*
X47047Y40953D02*
X68000D01*
X42429Y45571D02*
X47047Y40953D01*
X34055Y45571D02*
X42429D01*
X66394Y192559D02*
Y193441D01*
X68000Y195047D01*
X74000D01*
X79807Y200953D02*
X80000Y201146D01*
X74000Y200953D02*
X79807D01*
X34075Y192559D02*
X66394D01*
X68000Y190953D01*
X74000D01*
X59146Y206854D02*
X62000D01*
X58000Y208000D02*
X59146Y206854D01*
X80000D02*
X82854D01*
X84000Y208000D01*
X54000Y186000D02*
X57146D01*
X54000Y176000D02*
X57146D01*
X54000Y166000D02*
X57146D01*
X68000Y170953D02*
X74000D01*
X68000Y180953D02*
X74000D01*
X68000Y160953D02*
X74000D01*
X54000Y156000D02*
X57146D01*
X49047Y160953D02*
X68000D01*
X41063Y168937D02*
X49047Y160953D01*
X34075Y168937D02*
X41063D01*
X49047Y150953D02*
X68000D01*
X38937Y161063D02*
X49047Y150953D01*
X34075Y161063D02*
X38937D01*
X54000Y146000D02*
X57146D01*
X68000Y150953D02*
X74000D01*
X68000Y140953D02*
X74000D01*
X51047D02*
X68000D01*
X38811Y153189D02*
X51047Y140953D01*
X34075Y153189D02*
X38811D01*
X54000Y136000D02*
X57146D01*
X68000Y130953D02*
X74000D01*
X54000Y126000D02*
X57146D01*
X51047Y120953D02*
X68000D01*
X54000Y116000D02*
X57146D01*
X68000Y110953D02*
X74000D01*
X45047D02*
X68000D01*
X34075Y121925D02*
X45047Y110953D01*
X34075Y121925D02*
Y129567D01*
X54000Y106000D02*
X57146D01*
X68000Y100953D02*
X74000D01*
X54000Y96000D02*
X57146D01*
X68000Y90953D02*
X74000D01*
X68000Y80953D02*
X74000D01*
X48953Y100953D02*
X68000D01*
X40815Y92815D02*
X48953Y100953D01*
X34055Y92815D02*
X40815D01*
X54000Y76000D02*
X57146D01*
X44953Y70953D02*
X68000D01*
X43193Y69193D02*
X44953Y70953D01*
X34055Y69193D02*
X43193D01*
X68000Y70953D02*
X74000D01*
X54000Y66000D02*
X57146D01*
X68000Y60953D02*
X74000D01*
X34421D02*
X68000D01*
X34055Y61319D02*
X34421Y60953D01*
X54000Y56000D02*
X57146D01*
X54000Y46000D02*
X57146D01*
X54000Y36000D02*
X57146D01*
X54000Y26000D02*
X57146D01*
X54000Y16000D02*
X57146D01*
X56000Y10000D02*
X67047D01*
X40177Y29823D02*
X49047Y20953D01*
X34055Y29823D02*
X40177D01*
X49047Y30953D02*
X68000D01*
X42303Y37697D02*
X49047Y30953D01*
X34055Y37697D02*
X42303D01*
X68000Y50953D02*
X74000D01*
X68000Y40953D02*
X74000D01*
X68000Y30953D02*
X74000D01*
X68000Y20953D02*
X74000D01*
X68000Y120953D02*
X74000D01*
X53047Y130953D02*
X68000D01*
X38685Y145315D02*
X53047Y130953D01*
X44000Y128000D02*
X51047Y120953D01*
X34075Y137441D02*
X38559D01*
X44000Y132000D01*
Y128000D02*
Y132000D01*
X34075Y145315D02*
X38685D01*
X46000Y16000D02*
X54000D01*
X40051Y21949D02*
X46000Y16000D01*
X34055Y21949D02*
X40051D01*
X54000Y12000D02*
X56000Y10000D01*
X54000Y12000D02*
Y16000D01*
X258425Y137189D02*
X267189D01*
X271000Y141000D01*
X254000Y165236D02*
Y182874D01*
X257906Y186779D02*
Y195000D01*
X254000Y182874D02*
X254126Y183000D01*
X257906Y186779D01*
X236543Y195000D02*
X246094D01*
X236543D02*
Y200457D01*
X235000Y202000D02*
X236543Y200457D01*
X225000Y195000D02*
X229457D01*
X235000Y186740D02*
X245000D01*
X245000Y186740D01*
X246094Y187835D02*
Y195000D01*
X245000Y186740D02*
X246094Y187835D01*
X259000Y100000D02*
Y104457D01*
X254000Y165236D02*
X258425Y160811D01*
X271000Y141000D02*
Y163000D01*
X268179Y165821D02*
X271000Y163000D01*
X268179Y165821D02*
Y181306D01*
X269874Y183000D01*
D42*
X140945Y106000D02*
Y119583D01*
Y106055D02*
X141000Y106000D01*
X136441Y60236D02*
X137000Y59677D01*
Y57000D02*
Y59677D01*
D43*
X114000Y75000D02*
D03*
D44*
X129000Y207000D02*
D03*
X103000Y182000D02*
D03*
X159000Y206000D02*
D03*
X141000Y147000D02*
D03*
X157000Y149000D02*
D03*
X153000D02*
D03*
X149000D02*
D03*
X145000D02*
D03*
X216000Y113000D02*
D03*
X209000Y71000D02*
D03*
X206000Y103000D02*
D03*
X259000Y133000D02*
D03*
X190000Y98000D02*
D03*
X193000Y202000D02*
D03*
X141000Y106000D02*
D03*
X138000Y102000D02*
D03*
X131000Y72000D02*
D03*
X132000Y57000D02*
D03*
X137000D02*
D03*
X235000Y37000D02*
D03*
X234000Y47000D02*
D03*
X220043Y37882D02*
D03*
X235705Y72882D02*
D03*
X256000Y133000D02*
D03*
X225000Y195000D02*
D03*
X227000Y89000D02*
D03*
Y142000D02*
D03*
X214000Y90000D02*
D03*
X174980Y43882D02*
D03*
X194480Y171382D02*
D03*
Y167382D02*
D03*
Y163382D02*
D03*
X213480Y171382D02*
D03*
Y167382D02*
D03*
Y163382D02*
D03*
X210480Y160382D02*
D03*
X197480D02*
D03*
X201480D02*
D03*
X206480D02*
D03*
X54000Y26000D02*
D03*
Y16000D02*
D03*
Y36000D02*
D03*
Y46000D02*
D03*
Y56000D02*
D03*
Y66000D02*
D03*
Y76000D02*
D03*
Y86000D02*
D03*
Y96000D02*
D03*
Y106000D02*
D03*
Y116000D02*
D03*
Y126000D02*
D03*
Y136000D02*
D03*
Y146000D02*
D03*
Y156000D02*
D03*
Y166000D02*
D03*
Y176000D02*
D03*
Y186000D02*
D03*
X58000Y208000D02*
D03*
X84000D02*
D03*
X259000Y100000D02*
D03*
X199000Y66000D02*
D03*
X195000Y65000D02*
D03*
X213000Y64000D02*
D03*
X159000Y70000D02*
D03*
X163000Y97000D02*
D03*
M02*
