G04 Layer_Color=16711935*
%FSLAX25Y25*%
%MOIN*%
G70*
G01*
G75*
G04:AMPARAMS|DCode=74|XSize=236.28mil|YSize=236.28mil|CornerRadius=13.61mil|HoleSize=0mil|Usage=FLASHONLY|Rotation=270.000|XOffset=0mil|YOffset=0mil|HoleType=Round|Shape=RoundedRectangle|*
%AMROUNDEDRECTD74*
21,1,0.23628,0.20906,0,0,270.0*
21,1,0.20906,0.23628,0,0,270.0*
1,1,0.02723,-0.10453,-0.10453*
1,1,0.02723,-0.10453,0.10453*
1,1,0.02723,0.10453,0.10453*
1,1,0.02723,0.10453,-0.10453*
%
%ADD74ROUNDEDRECTD74*%
%ADD75C,0.00400*%
%ADD76C,0.01975*%
D74*
X114000Y75000D02*
D03*
D75*
X106299Y15748D02*
D03*
X275590Y204724D02*
D03*
X106299D02*
D03*
X275590Y15748D02*
D03*
D76*
X129000Y207000D02*
D03*
X103000Y182000D02*
D03*
X159000Y206000D02*
D03*
X141000Y147000D02*
D03*
X157000Y149000D02*
D03*
X153000D02*
D03*
X149000D02*
D03*
X145000D02*
D03*
X216000Y113000D02*
D03*
X209000Y71000D02*
D03*
X206000Y103000D02*
D03*
X259000Y133000D02*
D03*
X190000Y98000D02*
D03*
X193000Y202000D02*
D03*
X141000Y106000D02*
D03*
X138000Y102000D02*
D03*
X131000Y72000D02*
D03*
X132000Y57000D02*
D03*
X137000D02*
D03*
X235000Y37000D02*
D03*
X234000Y47000D02*
D03*
X220043Y37882D02*
D03*
X235705Y72882D02*
D03*
X256000Y133000D02*
D03*
X225000Y195000D02*
D03*
X227000Y89000D02*
D03*
Y142000D02*
D03*
X214000Y90000D02*
D03*
X174980Y43882D02*
D03*
X194480Y171382D02*
D03*
Y167382D02*
D03*
Y163382D02*
D03*
X213480Y171382D02*
D03*
Y167382D02*
D03*
Y163382D02*
D03*
X210480Y160382D02*
D03*
X197480D02*
D03*
X201480D02*
D03*
X206480D02*
D03*
X54000Y26000D02*
D03*
Y16000D02*
D03*
Y36000D02*
D03*
Y46000D02*
D03*
Y56000D02*
D03*
Y66000D02*
D03*
Y76000D02*
D03*
Y86000D02*
D03*
Y96000D02*
D03*
Y106000D02*
D03*
Y116000D02*
D03*
Y126000D02*
D03*
Y136000D02*
D03*
Y146000D02*
D03*
Y156000D02*
D03*
Y166000D02*
D03*
Y176000D02*
D03*
Y186000D02*
D03*
X58000Y208000D02*
D03*
X84000D02*
D03*
X259000Y100000D02*
D03*
X199000Y66000D02*
D03*
X195000Y65000D02*
D03*
X213000Y64000D02*
D03*
X159000Y70000D02*
D03*
X163000Y97000D02*
D03*
M02*
