G04 Layer_Physical_Order=2*
G04 Layer_Color=16711680*
%FSLAX25Y25*%
%MOIN*%
G70*
G01*
G75*
%ADD39C,0.01181*%
%ADD40C,0.00984*%
%ADD41C,0.01575*%
%ADD42C,0.01024*%
G04:AMPARAMS|DCode=43|XSize=232.28mil|YSize=232.28mil|CornerRadius=11.61mil|HoleSize=0mil|Usage=FLASHONLY|Rotation=270.000|XOffset=0mil|YOffset=0mil|HoleType=Round|Shape=RoundedRectangle|*
%AMROUNDEDRECTD43*
21,1,0.23228,0.20906,0,0,270.0*
21,1,0.20906,0.23228,0,0,270.0*
1,1,0.02323,-0.10453,-0.10453*
1,1,0.02323,-0.10453,0.10453*
1,1,0.02323,0.10453,0.10453*
1,1,0.02323,0.10453,-0.10453*
%
%ADD43ROUNDEDRECTD43*%
%ADD44C,0.02756*%
G36*
X86000Y156000D02*
X105000Y137000D01*
X136000Y106000D01*
Y103287D01*
X135760Y102928D01*
X135575Y102000D01*
X135760Y101072D01*
X136000Y100713D01*
Y75151D01*
X134370Y73521D01*
X132843D01*
X132714Y73714D01*
X131928Y74240D01*
X131000Y74424D01*
X130072Y74240D01*
X129286Y73714D01*
X128760Y72928D01*
X128576Y72000D01*
X128760Y71072D01*
X129286Y70286D01*
X130072Y69760D01*
X131000Y69576D01*
X131928Y69760D01*
X132714Y70286D01*
X132843Y70479D01*
X135000D01*
X135500Y70578D01*
X136000Y70327D01*
Y63152D01*
X132228Y59379D01*
X132000Y59425D01*
X131072Y59240D01*
X130286Y58714D01*
X129760Y57928D01*
X129576Y57000D01*
X129760Y56072D01*
X130286Y55286D01*
X131072Y54760D01*
X132000Y54576D01*
X132928Y54760D01*
X133714Y55286D01*
X134240Y56072D01*
X134245Y56098D01*
X134755D01*
X134760Y56072D01*
X135286Y55286D01*
X136000Y54808D01*
Y36000D01*
X99000Y36000D01*
X87000Y24000D01*
X87000Y3971D01*
X3971D01*
Y216501D01*
X86000D01*
X86000Y156000D01*
D02*
G37*
G36*
X265770Y216032D02*
X264968Y215347D01*
X263437Y213555D01*
X262205Y211545D01*
X261303Y209367D01*
X260753Y207074D01*
X260568Y204724D01*
X260753Y202374D01*
X261303Y200082D01*
X262205Y197904D01*
X263437Y195894D01*
X264968Y194102D01*
X266760Y192571D01*
X268770Y191339D01*
X270948Y190437D01*
X273240Y189887D01*
X275590Y189702D01*
X277941Y189887D01*
X280233Y190437D01*
X282411Y191339D01*
X284421Y192571D01*
X286213Y194102D01*
X286898Y194904D01*
X287368Y194731D01*
Y25741D01*
X286898Y25568D01*
X286213Y26371D01*
X284421Y27902D01*
X282411Y29133D01*
X280233Y30035D01*
X277941Y30586D01*
X275590Y30771D01*
X273240Y30586D01*
X270948Y30035D01*
X268770Y29133D01*
X266760Y27902D01*
X264968Y26371D01*
X263437Y24578D01*
X262205Y22568D01*
X261303Y20390D01*
X260753Y18098D01*
X260568Y15748D01*
X260753Y13398D01*
X261303Y11106D01*
X262205Y8928D01*
X263437Y6918D01*
X264968Y5125D01*
X265770Y4440D01*
X265597Y3971D01*
X157000D01*
X157000Y39000D01*
X178000Y60000D01*
X178000Y216501D01*
X265597D01*
X265770Y216032D01*
D02*
G37*
G36*
X162000Y210000D02*
X162000Y141000D01*
X120000D01*
X99000Y162000D01*
X98616Y185808D01*
X99111Y186169D01*
X101142Y185479D01*
X103699Y184970D01*
X106299Y184800D01*
X108900Y184970D01*
X111456Y185479D01*
X113924Y186317D01*
X116261Y187469D01*
X118429Y188917D01*
X120388Y190636D01*
X122106Y192595D01*
X123554Y194762D01*
X124707Y197100D01*
X125545Y199568D01*
X126053Y202124D01*
X126224Y204724D01*
X126053Y207325D01*
X125621Y209500D01*
X126021Y210000D01*
X162000Y210000D01*
D02*
G37*
%LPC*%
G36*
X283781Y83781D02*
X273922D01*
Y63426D01*
X283781D01*
Y83781D01*
D02*
G37*
G36*
X216000Y115425D02*
X215072Y115240D01*
X214286Y114714D01*
X213760Y113928D01*
X213576Y113000D01*
X213597Y112891D01*
X206109Y105403D01*
X206000Y105424D01*
X205072Y105240D01*
X204286Y104714D01*
X203760Y103928D01*
X203575Y103000D01*
X203760Y102072D01*
X204286Y101286D01*
X205072Y100760D01*
X206000Y100575D01*
X206928Y100760D01*
X207714Y101286D01*
X208240Y102072D01*
X208424Y103000D01*
X208403Y103109D01*
X215891Y110597D01*
X216000Y110575D01*
X216928Y110760D01*
X217714Y111286D01*
X218240Y112072D01*
X218425Y113000D01*
X218240Y113928D01*
X217714Y114714D01*
X216928Y115240D01*
X216000Y115425D01*
D02*
G37*
G36*
X209000Y73425D02*
X208072Y73240D01*
X207286Y72714D01*
X207224Y72622D01*
X199000D01*
X198379Y72498D01*
X197853Y72147D01*
X193853Y68147D01*
X193502Y67621D01*
X193378Y67000D01*
Y66776D01*
X193286Y66714D01*
X192760Y65928D01*
X192576Y65000D01*
X192760Y64072D01*
X193286Y63286D01*
X194072Y62760D01*
X195000Y62576D01*
X195928Y62760D01*
X196714Y63286D01*
X197240Y64072D01*
X197424Y65000D01*
X197240Y65928D01*
X196832Y66539D01*
X199672Y69378D01*
X207224D01*
X207286Y69286D01*
X208072Y68760D01*
X209000Y68576D01*
X209928Y68760D01*
X210714Y69286D01*
X211240Y70072D01*
X211424Y71000D01*
X211240Y71928D01*
X210714Y72714D01*
X209928Y73240D01*
X209000Y73425D01*
D02*
G37*
%LPD*%
D39*
X206000Y103000D02*
X216000Y113000D01*
X199000Y71000D02*
X209000D01*
X195000Y67000D02*
X199000Y71000D01*
X195000Y65000D02*
Y67000D01*
X275703Y82000D02*
X282000D01*
Y78851D01*
X280950Y77802D01*
X279901D01*
X278851Y78851D01*
Y82000D01*
Y78851D01*
X277802Y77802D01*
X276752D01*
X275703Y78851D01*
Y82000D01*
Y72554D02*
Y74653D01*
X276752Y75703D01*
X280950D01*
X282000Y74653D01*
Y72554D01*
X280950Y71505D01*
X276752D01*
X275703Y72554D01*
Y69406D02*
Y65207D01*
Y67307D01*
X282000D01*
D40*
X159000Y70000D02*
Y93000D01*
X163000Y97000D01*
X138000Y75000D02*
Y102000D01*
Y63000D02*
Y75000D01*
X135000Y72000D02*
X138000Y75000D01*
X131000Y72000D02*
X135000D01*
X132000Y57000D02*
X138000Y63000D01*
D41*
X58000Y208000D02*
X84000D01*
X54000Y186000D02*
Y204000D01*
X58000Y208000D01*
X54000Y176000D02*
Y186000D01*
Y166000D02*
Y176000D01*
Y156000D02*
Y166000D01*
Y146000D02*
Y156000D01*
Y136000D02*
Y146000D01*
Y126000D02*
Y136000D01*
Y116000D02*
Y126000D01*
Y106000D02*
Y116000D01*
Y96000D02*
Y106000D01*
Y86000D02*
Y96000D01*
Y76000D02*
Y86000D01*
Y66000D02*
Y76000D01*
Y56000D02*
Y66000D01*
Y46000D02*
Y56000D01*
Y36000D02*
Y46000D01*
Y26000D02*
Y36000D01*
Y16000D02*
Y26000D01*
D42*
X141000Y61000D02*
Y106000D01*
X137000Y57000D02*
X141000Y61000D01*
D43*
X114000Y75000D02*
D03*
D44*
X129000Y207000D02*
D03*
X103000Y182000D02*
D03*
X159000Y206000D02*
D03*
X141000Y147000D02*
D03*
X157000Y149000D02*
D03*
X153000D02*
D03*
X149000D02*
D03*
X145000D02*
D03*
X216000Y113000D02*
D03*
X209000Y71000D02*
D03*
X206000Y103000D02*
D03*
X259000Y133000D02*
D03*
X190000Y98000D02*
D03*
X193000Y202000D02*
D03*
X141000Y106000D02*
D03*
X138000Y102000D02*
D03*
X131000Y72000D02*
D03*
X132000Y57000D02*
D03*
X137000D02*
D03*
X235000Y37000D02*
D03*
X234000Y47000D02*
D03*
X220043Y37882D02*
D03*
X235705Y72882D02*
D03*
X256000Y133000D02*
D03*
X225000Y195000D02*
D03*
X227000Y89000D02*
D03*
Y142000D02*
D03*
X214000Y90000D02*
D03*
X174980Y43882D02*
D03*
X194480Y171382D02*
D03*
Y167382D02*
D03*
Y163382D02*
D03*
X213480Y171382D02*
D03*
Y167382D02*
D03*
Y163382D02*
D03*
X210480Y160382D02*
D03*
X197480D02*
D03*
X201480D02*
D03*
X206480D02*
D03*
X54000Y26000D02*
D03*
Y16000D02*
D03*
Y36000D02*
D03*
Y46000D02*
D03*
Y56000D02*
D03*
Y66000D02*
D03*
Y76000D02*
D03*
Y86000D02*
D03*
Y96000D02*
D03*
Y106000D02*
D03*
Y116000D02*
D03*
Y126000D02*
D03*
Y136000D02*
D03*
Y146000D02*
D03*
Y156000D02*
D03*
Y166000D02*
D03*
Y176000D02*
D03*
Y186000D02*
D03*
X58000Y208000D02*
D03*
X84000D02*
D03*
X259000Y100000D02*
D03*
X199000Y66000D02*
D03*
X195000Y65000D02*
D03*
X213000Y64000D02*
D03*
X159000Y70000D02*
D03*
X163000Y97000D02*
D03*
M02*
